<svg viewBox="0 0 500 300" xmlns="http://www.w3.org/2000/svg" role="img" aria-label="Jax Ryuu">
<defs>
  <linearGradient id="bg-anime-chr-5" x1="0" y1="0" x2="0" y2="1">
    <stop offset="0%" stop-color="#05030f"/>
    <stop offset="55%" stop-color="#0d0730"/>
    <stop offset="100%" stop-color="#000000"/>
  </linearGradient>
  <radialGradient id="sun-anime-chr-5" cx="50%" cy="100%" r="75%">
    <stop offset="0%" stop-color="#ff2bd6" stop-opacity="0.95"/>
    <stop offset="60%" stop-color="#00fff2" stop-opacity="0.35"/>
    <stop offset="100%" stop-color="#ff2bd6" stop-opacity="0"/>
  </radialGradient>
  <filter id="glow-anime-chr-5" x="-60%" y="-60%" width="220%" height="220%">
    <feGaussianBlur stdDeviation="4.2" result="blur"/>
    <feMerge>
      <feMergeNode in="blur"/>
      <feMergeNode in="SourceGraphic"/>
    </feMerge>
  </filter>
  <pattern id="scan-anime-chr-5" width="4" height="4" patternUnits="userSpaceOnUse">
    <rect width="4" height="2" fill="#ffffff" opacity="0.035"/>
  </pattern>
</defs>

<rect width="500" height="300" fill="url(#bg-anime-chr-5)"/>
<g><polygon points="14.3,0.0 7.2,12.4 -7.1,12.4 -14.3,0.0 -7.2,-12.4 7.1,-12.4" fill="none" stroke="#ff2bd6" stroke-width="1" opacity="0.1"/><polygon points="53.3,11.3 46.2,23.7 31.9,23.7 24.7,11.3 31.8,-1.1 46.1,-1.1" fill="none" stroke="#ff2bd6" stroke-width="1" opacity="0.1"/><polygon points="92.3,0.0 85.2,12.4 70.9,12.4 63.7,0.0 70.8,-12.4 85.1,-12.4" fill="none" stroke="#ff2bd6" stroke-width="1" opacity="0.1"/><polygon points="131.3,11.3 124.2,23.7 109.9,23.7 102.7,11.3 109.8,-1.1 124.1,-1.1" fill="none" stroke="#ff2bd6" stroke-width="1" opacity="0.1"/><polygon points="170.3,0.0 163.2,12.4 148.8,12.4 141.7,0.0 148.8,-12.4 163.1,-12.4" fill="none" stroke="#ff2bd6" stroke-width="1" opacity="0.1"/><polygon points="209.3,11.3 202.2,23.7 187.8,23.7 180.7,11.3 187.8,-1.1 202.1,-1.1" fill="none" stroke="#ff2bd6" stroke-width="1" opacity="0.1"/><polygon points="248.3,0.0 241.2,12.4 226.8,12.4 219.7,0.0 226.8,-12.4 241.1,-12.4" fill="none" stroke="#ff2bd6" stroke-width="1" opacity="0.1"/><polygon points="287.3,11.3 280.1,23.7 265.9,23.7 258.7,11.3 265.8,-1.1 280.1,-1.1" fill="none" stroke="#ff2bd6" stroke-width="1" opacity="0.1"/><polygon points="326.3,0.0 319.1,12.4 304.9,12.4 297.7,0.0 304.8,-12.4 319.1,-12.4" fill="none" stroke="#00fff2" stroke-width="1" opacity="0.55"/><polygon points="365.3,11.3 358.1,23.7 343.9,23.7 336.7,11.3 343.8,-1.1 358.1,-1.1" fill="none" stroke="#ff2bd6" stroke-width="1" opacity="0.1"/><polygon points="404.3,0.0 397.1,12.4 382.9,12.4 375.7,0.0 382.8,-12.4 397.1,-12.4" fill="none" stroke="#ff2bd6" stroke-width="1" opacity="0.1"/><polygon points="443.3,11.3 436.1,23.7 421.9,23.7 414.7,11.3 421.8,-1.1 436.1,-1.1" fill="none" stroke="#ff2bd6" stroke-width="1" opacity="0.1"/><polygon points="482.3,0.0 475.1,12.4 460.9,12.4 453.7,0.0 460.8,-12.4 475.1,-12.4" fill="none" stroke="#ff2bd6" stroke-width="1" opacity="0.1"/><polygon points="521.3,11.3 514.1,23.7 499.9,23.7 492.7,11.3 499.8,-1.1 514.1,-1.1" fill="none" stroke="#ff2bd6" stroke-width="1" opacity="0.1"/><polygon points="14.3,22.6 7.2,35.0 -7.1,35.0 -14.3,22.6 -7.2,10.2 7.1,10.2" fill="none" stroke="#ff2bd6" stroke-width="1" opacity="0.1"/><polygon points="53.3,33.9 46.2,46.3 31.9,46.3 24.7,33.9 31.8,21.5 46.1,21.5" fill="none" stroke="#ff2bd6" stroke-width="1" opacity="0.1"/><polygon points="92.3,22.6 85.2,35.0 70.9,35.0 63.7,22.6 70.8,10.2 85.1,10.2" fill="none" stroke="#ff2bd6" stroke-width="1" opacity="0.1"/><polygon points="131.3,33.9 124.2,46.3 109.9,46.3 102.7,33.9 109.8,21.5 124.1,21.5" fill="none" stroke="#ff2bd6" stroke-width="1" opacity="0.1"/><polygon points="170.3,22.6 163.2,35.0 148.8,35.0 141.7,22.6 148.8,10.2 163.1,10.2" fill="none" stroke="#ff2bd6" stroke-width="1" opacity="0.1"/><polygon points="209.3,33.9 202.2,46.3 187.8,46.3 180.7,33.9 187.8,21.5 202.1,21.5" fill="none" stroke="#ff2bd6" stroke-width="1" opacity="0.1"/><polygon points="248.3,22.6 241.2,35.0 226.8,35.0 219.7,22.6 226.8,10.2 241.1,10.2" fill="none" stroke="#ff2bd6" stroke-width="1" opacity="0.1"/><polygon points="287.3,33.9 280.1,46.3 265.9,46.3 258.7,33.9 265.8,21.5 280.1,21.5" fill="none" stroke="#ff2bd6" stroke-width="1" opacity="0.1"/><polygon points="326.3,22.6 319.1,35.0 304.9,35.0 297.7,22.6 304.8,10.2 319.1,10.2" fill="none" stroke="#ff2bd6" stroke-width="1" opacity="0.1"/><polygon points="365.3,33.9 358.1,46.3 343.9,46.3 336.7,33.9 343.8,21.5 358.1,21.5" fill="none" stroke="#ff2bd6" stroke-width="1" opacity="0.1"/><polygon points="404.3,22.6 397.1,35.0 382.9,35.0 375.7,22.6 382.8,10.2 397.1,10.2" fill="none" stroke="#00fff2" stroke-width="1" opacity="0.55"/><polygon points="443.3,33.9 436.1,46.3 421.9,46.3 414.7,33.9 421.8,21.5 436.1,21.5" fill="none" stroke="#ff2bd6" stroke-width="1" opacity="0.1"/><polygon points="482.3,22.6 475.1,35.0 460.9,35.0 453.7,22.6 460.8,10.2 475.1,10.2" fill="none" stroke="#ff2bd6" stroke-width="1" opacity="0.1"/><polygon points="521.3,33.9 514.1,46.3 499.9,46.3 492.7,33.9 499.8,21.5 514.1,21.5" fill="none" stroke="#ff2bd6" stroke-width="1" opacity="0.1"/><polygon points="14.3,45.2 7.2,57.6 -7.1,57.6 -14.3,45.2 -7.2,32.9 7.1,32.9" fill="none" stroke="#ff2bd6" stroke-width="1" opacity="0.1"/><polygon points="53.3,56.6 46.2,68.9 31.9,68.9 24.7,56.6 31.8,44.2 46.1,44.2" fill="none" stroke="#ff2bd6" stroke-width="1" opacity="0.1"/><polygon points="92.3,45.2 85.2,57.6 70.9,57.6 63.7,45.2 70.8,32.9 85.1,32.9" fill="none" stroke="#ff2bd6" stroke-width="1" opacity="0.1"/><polygon points="131.3,56.6 124.2,68.9 109.9,68.9 102.7,56.6 109.8,44.2 124.1,44.2" fill="none" stroke="#ff2bd6" stroke-width="1" opacity="0.1"/><polygon points="170.3,45.2 163.2,57.6 148.8,57.6 141.7,45.2 148.8,32.9 163.1,32.9" fill="none" stroke="#ff2bd6" stroke-width="1" opacity="0.1"/><polygon points="209.3,56.6 202.2,68.9 187.8,68.9 180.7,56.6 187.8,44.2 202.1,44.2" fill="none" stroke="#ff2bd6" stroke-width="1" opacity="0.1"/><polygon points="248.3,45.2 241.2,57.6 226.8,57.6 219.7,45.2 226.8,32.9 241.1,32.9" fill="none" stroke="#ff2bd6" stroke-width="1" opacity="0.1"/><polygon points="287.3,56.6 280.1,68.9 265.9,68.9 258.7,56.6 265.8,44.2 280.1,44.2" fill="none" stroke="#ff2bd6" stroke-width="1" opacity="0.1"/><polygon points="326.3,45.2 319.1,57.6 304.9,57.6 297.7,45.2 304.8,32.9 319.1,32.9" fill="none" stroke="#ff2bd6" stroke-width="1" opacity="0.1"/><polygon points="365.3,56.6 358.1,68.9 343.9,68.9 336.7,56.6 343.8,44.2 358.1,44.2" fill="none" stroke="#ff2bd6" stroke-width="1" opacity="0.1"/><polygon points="404.3,45.2 397.1,57.6 382.9,57.6 375.7,45.2 382.8,32.9 397.1,32.9" fill="none" stroke="#ff2bd6" stroke-width="1" opacity="0.1"/><polygon points="443.3,56.6 436.1,68.9 421.9,68.9 414.7,56.6 421.8,44.2 436.1,44.2" fill="none" stroke="#ff2bd6" stroke-width="1" opacity="0.1"/><polygon points="482.3,45.2 475.1,57.6 460.9,57.6 453.7,45.2 460.8,32.9 475.1,32.9" fill="none" stroke="#00fff2" stroke-width="1" opacity="0.55"/><polygon points="521.3,56.6 514.1,68.9 499.9,68.9 492.7,56.6 499.8,44.2 514.1,44.2" fill="none" stroke="#ff2bd6" stroke-width="1" opacity="0.1"/><polygon points="14.3,67.9 7.2,80.2 -7.1,80.2 -14.3,67.9 -7.2,55.5 7.1,55.5" fill="none" stroke="#ff2bd6" stroke-width="1" opacity="0.1"/><polygon points="53.3,79.2 46.2,91.6 31.9,91.6 24.7,79.2 31.8,66.8 46.1,66.8" fill="none" stroke="#ff2bd6" stroke-width="1" opacity="0.1"/><polygon points="92.3,67.9 85.2,80.2 70.9,80.2 63.7,67.9 70.8,55.5 85.1,55.5" fill="none" stroke="#ff2bd6" stroke-width="1" opacity="0.1"/><polygon points="131.3,79.2 124.2,91.6 109.9,91.6 102.7,79.2 109.8,66.8 124.1,66.8" fill="none" stroke="#ff2bd6" stroke-width="1" opacity="0.1"/><polygon points="170.3,67.9 163.2,80.2 148.8,80.2 141.7,67.9 148.8,55.5 163.1,55.5" fill="none" stroke="#ff2bd6" stroke-width="1" opacity="0.1"/><polygon points="209.3,79.2 202.2,91.6 187.8,91.6 180.7,79.2 187.8,66.8 202.1,66.8" fill="none" stroke="#ff2bd6" stroke-width="1" opacity="0.1"/><polygon points="248.3,67.9 241.2,80.2 226.8,80.2 219.7,67.9 226.8,55.5 241.1,55.5" fill="none" stroke="#ff2bd6" stroke-width="1" opacity="0.1"/><polygon points="287.3,79.2 280.1,91.6 265.9,91.6 258.7,79.2 265.8,66.8 280.1,66.8" fill="none" stroke="#ff2bd6" stroke-width="1" opacity="0.1"/><polygon points="326.3,67.9 319.1,80.2 304.9,80.2 297.7,67.9 304.8,55.5 319.1,55.5" fill="none" stroke="#ff2bd6" stroke-width="1" opacity="0.1"/><polygon points="365.3,79.2 358.1,91.6 343.9,91.6 336.7,79.2 343.8,66.8 358.1,66.8" fill="none" stroke="#ff2bd6" stroke-width="1" opacity="0.1"/><polygon points="404.3,67.9 397.1,80.2 382.9,80.2 375.7,67.9 382.8,55.5 397.1,55.5" fill="none" stroke="#ff2bd6" stroke-width="1" opacity="0.1"/><polygon points="443.3,79.2 436.1,91.6 421.9,91.6 414.7,79.2 421.8,66.8 436.1,66.8" fill="none" stroke="#ff2bd6" stroke-width="1" opacity="0.1"/><polygon points="482.3,67.9 475.1,80.2 460.9,80.2 453.7,67.9 460.8,55.5 475.1,55.5" fill="none" stroke="#ff2bd6" stroke-width="1" opacity="0.1"/><polygon points="521.3,79.2 514.1,91.6 499.9,91.6 492.7,79.2 499.8,66.8 514.1,66.8" fill="none" stroke="#ff2bd6" stroke-width="1" opacity="0.1"/><polygon points="14.3,90.5 7.2,102.9 -7.1,102.9 -14.3,90.5 -7.2,78.1 7.1,78.1" fill="none" stroke="#00fff2" stroke-width="1" opacity="0.55"/><polygon points="53.3,101.8 46.2,114.2 31.9,114.2 24.7,101.8 31.8,89.4 46.1,89.4" fill="none" stroke="#ff2bd6" stroke-width="1" opacity="0.1"/><polygon points="92.3,90.5 85.2,102.9 70.9,102.9 63.7,90.5 70.8,78.1 85.1,78.1" fill="none" stroke="#ff2bd6" stroke-width="1" opacity="0.1"/><polygon points="131.3,101.8 124.2,114.2 109.9,114.2 102.7,101.8 109.8,89.4 124.1,89.4" fill="none" stroke="#ff2bd6" stroke-width="1" opacity="0.1"/><polygon points="170.3,90.5 163.2,102.9 148.8,102.9 141.7,90.5 148.8,78.1 163.1,78.1" fill="none" stroke="#ff2bd6" stroke-width="1" opacity="0.1"/><polygon points="209.3,101.8 202.2,114.2 187.8,114.2 180.7,101.8 187.8,89.4 202.1,89.4" fill="none" stroke="#ff2bd6" stroke-width="1" opacity="0.1"/><polygon points="248.3,90.5 241.2,102.9 226.8,102.9 219.7,90.5 226.8,78.1 241.1,78.1" fill="none" stroke="#ff2bd6" stroke-width="1" opacity="0.1"/><polygon points="287.3,101.8 280.1,114.2 265.9,114.2 258.7,101.8 265.8,89.4 280.1,89.4" fill="none" stroke="#ff2bd6" stroke-width="1" opacity="0.1"/><polygon points="326.3,90.5 319.1,102.9 304.9,102.9 297.7,90.5 304.8,78.1 319.1,78.1" fill="none" stroke="#ff2bd6" stroke-width="1" opacity="0.1"/><polygon points="365.3,101.8 358.1,114.2 343.9,114.2 336.7,101.8 343.8,89.4 358.1,89.4" fill="none" stroke="#ff2bd6" stroke-width="1" opacity="0.1"/><polygon points="404.3,90.5 397.1,102.9 382.9,102.9 375.7,90.5 382.8,78.1 397.1,78.1" fill="none" stroke="#ff2bd6" stroke-width="1" opacity="0.1"/><polygon points="443.3,101.8 436.1,114.2 421.9,114.2 414.7,101.8 421.8,89.4 436.1,89.4" fill="none" stroke="#ff2bd6" stroke-width="1" opacity="0.1"/><polygon points="482.3,90.5 475.1,102.9 460.9,102.9 453.7,90.5 460.8,78.1 475.1,78.1" fill="none" stroke="#ff2bd6" stroke-width="1" opacity="0.1"/><polygon points="521.3,101.8 514.1,114.2 499.9,114.2 492.7,101.8 499.8,89.4 514.1,89.4" fill="none" stroke="#ff2bd6" stroke-width="1" opacity="0.1"/><polygon points="14.3,113.1 7.2,125.5 -7.1,125.5 -14.3,113.1 -7.2,100.7 7.1,100.7" fill="none" stroke="#ff2bd6" stroke-width="1" opacity="0.1"/><polygon points="53.3,124.4 46.2,136.8 31.9,136.8 24.7,124.4 31.8,112.0 46.1,112.0" fill="none" stroke="#ff2bd6" stroke-width="1" opacity="0.1"/><polygon points="92.3,113.1 85.2,125.5 70.9,125.5 63.7,113.1 70.8,100.7 85.1,100.7" fill="none" stroke="#00fff2" stroke-width="1" opacity="0.55"/><polygon points="131.3,124.4 124.2,136.8 109.9,136.8 102.7,124.4 109.8,112.0 124.1,112.0" fill="none" stroke="#ff2bd6" stroke-width="1" opacity="0.1"/><polygon points="170.3,113.1 163.2,125.5 148.8,125.5 141.7,113.1 148.8,100.7 163.1,100.7" fill="none" stroke="#ff2bd6" stroke-width="1" opacity="0.1"/><polygon points="209.3,124.4 202.2,136.8 187.8,136.8 180.7,124.4 187.8,112.0 202.1,112.0" fill="none" stroke="#ff2bd6" stroke-width="1" opacity="0.1"/><polygon points="248.3,113.1 241.2,125.5 226.8,125.5 219.7,113.1 226.8,100.7 241.1,100.7" fill="none" stroke="#ff2bd6" stroke-width="1" opacity="0.1"/><polygon points="287.3,124.4 280.1,136.8 265.9,136.8 258.7,124.4 265.8,112.0 280.1,112.0" fill="none" stroke="#ff2bd6" stroke-width="1" opacity="0.1"/><polygon points="326.3,113.1 319.1,125.5 304.9,125.5 297.7,113.1 304.8,100.7 319.1,100.7" fill="none" stroke="#ff2bd6" stroke-width="1" opacity="0.1"/><polygon points="365.3,124.4 358.1,136.8 343.9,136.8 336.7,124.4 343.8,112.0 358.1,112.0" fill="none" stroke="#ff2bd6" stroke-width="1" opacity="0.1"/><polygon points="404.3,113.1 397.1,125.5 382.9,125.5 375.7,113.1 382.8,100.7 397.1,100.7" fill="none" stroke="#ff2bd6" stroke-width="1" opacity="0.1"/><polygon points="443.3,124.4 436.1,136.8 421.9,136.8 414.7,124.4 421.8,112.0 436.1,112.0" fill="none" stroke="#ff2bd6" stroke-width="1" opacity="0.1"/><polygon points="482.3,113.1 475.1,125.5 460.9,125.5 453.7,113.1 460.8,100.7 475.1,100.7" fill="none" stroke="#ff2bd6" stroke-width="1" opacity="0.1"/><polygon points="521.3,124.4 514.1,136.8 499.9,136.8 492.7,124.4 499.8,112.0 514.1,112.0" fill="none" stroke="#ff2bd6" stroke-width="1" opacity="0.1"/><polygon points="14.3,135.7 7.2,148.1 -7.1,148.1 -14.3,135.7 -7.2,123.3 7.1,123.3" fill="none" stroke="#ff2bd6" stroke-width="1" opacity="0.1"/><polygon points="53.3,147.0 46.2,159.4 31.9,159.4 24.7,147.0 31.8,134.6 46.1,134.6" fill="none" stroke="#ff2bd6" stroke-width="1" opacity="0.1"/><polygon points="92.3,135.7 85.2,148.1 70.9,148.1 63.7,135.7 70.8,123.3 85.1,123.3" fill="none" stroke="#ff2bd6" stroke-width="1" opacity="0.1"/><polygon points="131.3,147.0 124.2,159.4 109.9,159.4 102.7,147.0 109.8,134.6 124.1,134.6" fill="none" stroke="#ff2bd6" stroke-width="1" opacity="0.1"/><polygon points="170.3,135.7 163.2,148.1 148.8,148.1 141.7,135.7 148.8,123.3 163.1,123.3" fill="none" stroke="#00fff2" stroke-width="1" opacity="0.55"/><polygon points="209.3,147.0 202.2,159.4 187.8,159.4 180.7,147.0 187.8,134.6 202.1,134.6" fill="none" stroke="#ff2bd6" stroke-width="1" opacity="0.1"/><polygon points="248.3,135.7 241.2,148.1 226.8,148.1 219.7,135.7 226.8,123.3 241.1,123.3" fill="none" stroke="#ff2bd6" stroke-width="1" opacity="0.1"/><polygon points="287.3,147.0 280.1,159.4 265.9,159.4 258.7,147.0 265.8,134.6 280.1,134.6" fill="none" stroke="#ff2bd6" stroke-width="1" opacity="0.1"/><polygon points="326.3,135.7 319.1,148.1 304.9,148.1 297.7,135.7 304.8,123.3 319.1,123.3" fill="none" stroke="#ff2bd6" stroke-width="1" opacity="0.1"/><polygon points="365.3,147.0 358.1,159.4 343.9,159.4 336.7,147.0 343.8,134.6 358.1,134.6" fill="none" stroke="#ff2bd6" stroke-width="1" opacity="0.1"/><polygon points="404.3,135.7 397.1,148.1 382.9,148.1 375.7,135.7 382.8,123.3 397.1,123.3" fill="none" stroke="#ff2bd6" stroke-width="1" opacity="0.1"/><polygon points="443.3,147.0 436.1,159.4 421.9,159.4 414.7,147.0 421.8,134.6 436.1,134.6" fill="none" stroke="#ff2bd6" stroke-width="1" opacity="0.1"/><polygon points="482.3,135.7 475.1,148.1 460.9,148.1 453.7,135.7 460.8,123.3 475.1,123.3" fill="none" stroke="#ff2bd6" stroke-width="1" opacity="0.1"/><polygon points="521.3,147.0 514.1,159.4 499.9,159.4 492.7,147.0 499.8,134.6 514.1,134.6" fill="none" stroke="#ff2bd6" stroke-width="1" opacity="0.1"/><polygon points="14.3,158.3 7.2,170.7 -7.1,170.7 -14.3,158.3 -7.2,146.0 7.1,146.0" fill="none" stroke="#ff2bd6" stroke-width="1" opacity="0.1"/><polygon points="53.3,169.7 46.2,182.0 31.9,182.0 24.7,169.7 31.8,157.3 46.1,157.3" fill="none" stroke="#ff2bd6" stroke-width="1" opacity="0.1"/><polygon points="92.3,158.3 85.2,170.7 70.9,170.7 63.7,158.3 70.8,146.0 85.1,146.0" fill="none" stroke="#ff2bd6" stroke-width="1" opacity="0.1"/><polygon points="131.3,169.7 124.2,182.0 109.9,182.0 102.7,169.7 109.8,157.3 124.1,157.3" fill="none" stroke="#ff2bd6" stroke-width="1" opacity="0.1"/><polygon points="170.3,158.3 163.2,170.7 148.8,170.7 141.7,158.3 148.8,146.0 163.1,146.0" fill="none" stroke="#ff2bd6" stroke-width="1" opacity="0.1"/><polygon points="209.3,169.7 202.2,182.0 187.8,182.0 180.7,169.7 187.8,157.3 202.1,157.3" fill="none" stroke="#ff2bd6" stroke-width="1" opacity="0.1"/><polygon points="248.3,158.3 241.2,170.7 226.8,170.7 219.7,158.3 226.8,146.0 241.1,146.0" fill="none" stroke="#00fff2" stroke-width="1" opacity="0.55"/><polygon points="287.3,169.7 280.1,182.0 265.9,182.0 258.7,169.7 265.8,157.3 280.1,157.3" fill="none" stroke="#ff2bd6" stroke-width="1" opacity="0.1"/><polygon points="326.3,158.3 319.1,170.7 304.9,170.7 297.7,158.3 304.8,146.0 319.1,146.0" fill="none" stroke="#ff2bd6" stroke-width="1" opacity="0.1"/><polygon points="365.3,169.7 358.1,182.0 343.9,182.0 336.7,169.7 343.8,157.3 358.1,157.3" fill="none" stroke="#ff2bd6" stroke-width="1" opacity="0.1"/><polygon points="404.3,158.3 397.1,170.7 382.9,170.7 375.7,158.3 382.8,146.0 397.1,146.0" fill="none" stroke="#ff2bd6" stroke-width="1" opacity="0.1"/><polygon points="443.3,169.7 436.1,182.0 421.9,182.0 414.7,169.7 421.8,157.3 436.1,157.3" fill="none" stroke="#ff2bd6" stroke-width="1" opacity="0.1"/><polygon points="482.3,158.3 475.1,170.7 460.9,170.7 453.7,158.3 460.8,146.0 475.1,146.0" fill="none" stroke="#ff2bd6" stroke-width="1" opacity="0.1"/><polygon points="521.3,169.7 514.1,182.0 499.9,182.0 492.7,169.7 499.8,157.3 514.1,157.3" fill="none" stroke="#ff2bd6" stroke-width="1" opacity="0.1"/><polygon points="14.3,181.0 7.2,193.3 -7.1,193.3 -14.3,181.0 -7.2,168.6 7.1,168.6" fill="none" stroke="#ff2bd6" stroke-width="1" opacity="0.1"/><polygon points="53.3,192.3 46.2,204.7 31.9,204.7 24.7,192.3 31.8,179.9 46.1,179.9" fill="none" stroke="#ff2bd6" stroke-width="1" opacity="0.1"/><polygon points="92.3,181.0 85.2,193.3 70.9,193.3 63.7,181.0 70.8,168.6 85.1,168.6" fill="none" stroke="#ff2bd6" stroke-width="1" opacity="0.1"/><polygon points="131.3,192.3 124.2,204.7 109.9,204.7 102.7,192.3 109.8,179.9 124.1,179.9" fill="none" stroke="#ff2bd6" stroke-width="1" opacity="0.1"/><polygon points="170.3,181.0 163.2,193.3 148.8,193.3 141.7,181.0 148.8,168.6 163.1,168.6" fill="none" stroke="#ff2bd6" stroke-width="1" opacity="0.1"/><polygon points="209.3,192.3 202.2,204.7 187.8,204.7 180.7,192.3 187.8,179.9 202.1,179.9" fill="none" stroke="#ff2bd6" stroke-width="1" opacity="0.1"/><polygon points="248.3,181.0 241.2,193.3 226.8,193.3 219.7,181.0 226.8,168.6 241.1,168.6" fill="none" stroke="#ff2bd6" stroke-width="1" opacity="0.1"/><polygon points="287.3,192.3 280.1,204.7 265.9,204.7 258.7,192.3 265.8,179.9 280.1,179.9" fill="none" stroke="#ff2bd6" stroke-width="1" opacity="0.1"/><polygon points="326.3,181.0 319.1,193.3 304.9,193.3 297.7,181.0 304.8,168.6 319.1,168.6" fill="none" stroke="#00fff2" stroke-width="1" opacity="0.55"/><polygon points="365.3,192.3 358.1,204.7 343.9,204.7 336.7,192.3 343.8,179.9 358.1,179.9" fill="none" stroke="#ff2bd6" stroke-width="1" opacity="0.1"/><polygon points="404.3,181.0 397.1,193.3 382.9,193.3 375.7,181.0 382.8,168.6 397.1,168.6" fill="none" stroke="#ff2bd6" stroke-width="1" opacity="0.1"/><polygon points="443.3,192.3 436.1,204.7 421.9,204.7 414.7,192.3 421.8,179.9 436.1,179.9" fill="none" stroke="#ff2bd6" stroke-width="1" opacity="0.1"/><polygon points="482.3,181.0 475.1,193.3 460.9,193.3 453.7,181.0 460.8,168.6 475.1,168.6" fill="none" stroke="#ff2bd6" stroke-width="1" opacity="0.1"/><polygon points="521.3,192.3 514.1,204.7 499.9,204.7 492.7,192.3 499.8,179.9 514.1,179.9" fill="none" stroke="#ff2bd6" stroke-width="1" opacity="0.1"/><polygon points="14.3,203.6 7.2,216.0 -7.1,216.0 -14.3,203.6 -7.2,191.2 7.1,191.2" fill="none" stroke="#ff2bd6" stroke-width="1" opacity="0.1"/><polygon points="53.3,214.9 46.2,227.3 31.9,227.3 24.7,214.9 31.8,202.5 46.1,202.5" fill="none" stroke="#ff2bd6" stroke-width="1" opacity="0.1"/><polygon points="92.3,203.6 85.2,216.0 70.9,216.0 63.7,203.6 70.8,191.2 85.1,191.2" fill="none" stroke="#ff2bd6" stroke-width="1" opacity="0.1"/><polygon points="131.3,214.9 124.2,227.3 109.9,227.3 102.7,214.9 109.8,202.5 124.1,202.5" fill="none" stroke="#ff2bd6" stroke-width="1" opacity="0.1"/><polygon points="170.3,203.6 163.2,216.0 148.8,216.0 141.7,203.6 148.8,191.2 163.1,191.2" fill="none" stroke="#ff2bd6" stroke-width="1" opacity="0.1"/><polygon points="209.3,214.9 202.2,227.3 187.8,227.3 180.7,214.9 187.8,202.5 202.1,202.5" fill="none" stroke="#ff2bd6" stroke-width="1" opacity="0.1"/><polygon points="248.3,203.6 241.2,216.0 226.8,216.0 219.7,203.6 226.8,191.2 241.1,191.2" fill="none" stroke="#ff2bd6" stroke-width="1" opacity="0.1"/><polygon points="287.3,214.9 280.1,227.3 265.9,227.3 258.7,214.9 265.8,202.5 280.1,202.5" fill="none" stroke="#ff2bd6" stroke-width="1" opacity="0.1"/><polygon points="326.3,203.6 319.1,216.0 304.9,216.0 297.7,203.6 304.8,191.2 319.1,191.2" fill="none" stroke="#ff2bd6" stroke-width="1" opacity="0.1"/><polygon points="365.3,214.9 358.1,227.3 343.9,227.3 336.7,214.9 343.8,202.5 358.1,202.5" fill="none" stroke="#ff2bd6" stroke-width="1" opacity="0.1"/><polygon points="404.3,203.6 397.1,216.0 382.9,216.0 375.7,203.6 382.8,191.2 397.1,191.2" fill="none" stroke="#00fff2" stroke-width="1" opacity="0.55"/><polygon points="443.3,214.9 436.1,227.3 421.9,227.3 414.7,214.9 421.8,202.5 436.1,202.5" fill="none" stroke="#ff2bd6" stroke-width="1" opacity="0.1"/><polygon points="482.3,203.6 475.1,216.0 460.9,216.0 453.7,203.6 460.8,191.2 475.1,191.2" fill="none" stroke="#ff2bd6" stroke-width="1" opacity="0.1"/><polygon points="521.3,214.9 514.1,227.3 499.9,227.3 492.7,214.9 499.8,202.5 514.1,202.5" fill="none" stroke="#ff2bd6" stroke-width="1" opacity="0.1"/><polygon points="14.3,226.2 7.2,238.6 -7.1,238.6 -14.3,226.2 -7.2,213.8 7.1,213.8" fill="none" stroke="#ff2bd6" stroke-width="1" opacity="0.1"/><polygon points="53.3,237.5 46.2,249.9 31.9,249.9 24.7,237.5 31.8,225.1 46.1,225.1" fill="none" stroke="#ff2bd6" stroke-width="1" opacity="0.1"/><polygon points="92.3,226.2 85.2,238.6 70.9,238.6 63.7,226.2 70.8,213.8 85.1,213.8" fill="none" stroke="#ff2bd6" stroke-width="1" opacity="0.1"/><polygon points="131.3,237.5 124.2,249.9 109.9,249.9 102.7,237.5 109.8,225.1 124.1,225.1" fill="none" stroke="#ff2bd6" stroke-width="1" opacity="0.1"/><polygon points="170.3,226.2 163.2,238.6 148.8,238.6 141.7,226.2 148.8,213.8 163.1,213.8" fill="none" stroke="#ff2bd6" stroke-width="1" opacity="0.1"/><polygon points="209.3,237.5 202.2,249.9 187.8,249.9 180.7,237.5 187.8,225.1 202.1,225.1" fill="none" stroke="#ff2bd6" stroke-width="1" opacity="0.1"/><polygon points="248.3,226.2 241.2,238.6 226.8,238.6 219.7,226.2 226.8,213.8 241.1,213.8" fill="none" stroke="#ff2bd6" stroke-width="1" opacity="0.1"/><polygon points="287.3,237.5 280.1,249.9 265.9,249.9 258.7,237.5 265.8,225.1 280.1,225.1" fill="none" stroke="#ff2bd6" stroke-width="1" opacity="0.1"/><polygon points="326.3,226.2 319.1,238.6 304.9,238.6 297.7,226.2 304.8,213.8 319.1,213.8" fill="none" stroke="#ff2bd6" stroke-width="1" opacity="0.1"/><polygon points="365.3,237.5 358.1,249.9 343.9,249.9 336.7,237.5 343.8,225.1 358.1,225.1" fill="none" stroke="#ff2bd6" stroke-width="1" opacity="0.1"/><polygon points="404.3,226.2 397.1,238.6 382.9,238.6 375.7,226.2 382.8,213.8 397.1,213.8" fill="none" stroke="#ff2bd6" stroke-width="1" opacity="0.1"/><polygon points="443.3,237.5 436.1,249.9 421.9,249.9 414.7,237.5 421.8,225.1 436.1,225.1" fill="none" stroke="#ff2bd6" stroke-width="1" opacity="0.1"/><polygon points="482.3,226.2 475.1,238.6 460.9,238.6 453.7,226.2 460.8,213.8 475.1,213.8" fill="none" stroke="#00fff2" stroke-width="1" opacity="0.55"/><polygon points="521.3,237.5 514.1,249.9 499.9,249.9 492.7,237.5 499.8,225.1 514.1,225.1" fill="none" stroke="#ff2bd6" stroke-width="1" opacity="0.1"/><polygon points="14.3,248.8 7.2,261.2 -7.1,261.2 -14.3,248.8 -7.2,236.4 7.1,236.4" fill="none" stroke="#ff2bd6" stroke-width="1" opacity="0.1"/><polygon points="53.3,260.1 46.2,272.5 31.9,272.5 24.7,260.1 31.8,247.7 46.1,247.7" fill="none" stroke="#ff2bd6" stroke-width="1" opacity="0.1"/><polygon points="92.3,248.8 85.2,261.2 70.9,261.2 63.7,248.8 70.8,236.4 85.1,236.4" fill="none" stroke="#ff2bd6" stroke-width="1" opacity="0.1"/><polygon points="131.3,260.1 124.2,272.5 109.9,272.5 102.7,260.1 109.8,247.7 124.1,247.7" fill="none" stroke="#ff2bd6" stroke-width="1" opacity="0.1"/><polygon points="170.3,248.8 163.2,261.2 148.8,261.2 141.7,248.8 148.8,236.4 163.1,236.4" fill="none" stroke="#ff2bd6" stroke-width="1" opacity="0.1"/><polygon points="209.3,260.1 202.2,272.5 187.8,272.5 180.7,260.1 187.8,247.7 202.1,247.7" fill="none" stroke="#ff2bd6" stroke-width="1" opacity="0.1"/><polygon points="248.3,248.8 241.2,261.2 226.8,261.2 219.7,248.8 226.8,236.4 241.1,236.4" fill="none" stroke="#ff2bd6" stroke-width="1" opacity="0.1"/><polygon points="287.3,260.1 280.1,272.5 265.9,272.5 258.7,260.1 265.8,247.7 280.1,247.7" fill="none" stroke="#ff2bd6" stroke-width="1" opacity="0.1"/><polygon points="326.3,248.8 319.1,261.2 304.9,261.2 297.7,248.8 304.8,236.4 319.1,236.4" fill="none" stroke="#ff2bd6" stroke-width="1" opacity="0.1"/><polygon points="365.3,260.1 358.1,272.5 343.9,272.5 336.7,260.1 343.8,247.7 358.1,247.7" fill="none" stroke="#ff2bd6" stroke-width="1" opacity="0.1"/><polygon points="404.3,248.8 397.1,261.2 382.9,261.2 375.7,248.8 382.8,236.4 397.1,236.4" fill="none" stroke="#ff2bd6" stroke-width="1" opacity="0.1"/><polygon points="443.3,260.1 436.1,272.5 421.9,272.5 414.7,260.1 421.8,247.7 436.1,247.7" fill="none" stroke="#ff2bd6" stroke-width="1" opacity="0.1"/><polygon points="482.3,248.8 475.1,261.2 460.9,261.2 453.7,248.8 460.8,236.4 475.1,236.4" fill="none" stroke="#ff2bd6" stroke-width="1" opacity="0.1"/><polygon points="521.3,260.1 514.1,272.5 499.9,272.5 492.7,260.1 499.8,247.7 514.1,247.7" fill="none" stroke="#ff2bd6" stroke-width="1" opacity="0.1"/><polygon points="14.3,271.4 7.2,283.8 -7.1,283.8 -14.3,271.4 -7.2,259.1 7.1,259.1" fill="none" stroke="#00fff2" stroke-width="1" opacity="0.55"/><polygon points="53.3,282.8 46.2,295.1 31.9,295.1 24.7,282.8 31.8,270.4 46.1,270.4" fill="none" stroke="#ff2bd6" stroke-width="1" opacity="0.1"/><polygon points="92.3,271.4 85.2,283.8 70.9,283.8 63.7,271.4 70.8,259.1 85.1,259.1" fill="none" stroke="#ff2bd6" stroke-width="1" opacity="0.1"/><polygon points="131.3,282.8 124.2,295.1 109.9,295.1 102.7,282.8 109.8,270.4 124.1,270.4" fill="none" stroke="#ff2bd6" stroke-width="1" opacity="0.1"/><polygon points="170.3,271.4 163.2,283.8 148.8,283.8 141.7,271.4 148.8,259.1 163.1,259.1" fill="none" stroke="#ff2bd6" stroke-width="1" opacity="0.1"/><polygon points="209.3,282.8 202.2,295.1 187.8,295.1 180.7,282.8 187.8,270.4 202.1,270.4" fill="none" stroke="#ff2bd6" stroke-width="1" opacity="0.1"/><polygon points="248.3,271.4 241.2,283.8 226.8,283.8 219.7,271.4 226.8,259.1 241.1,259.1" fill="none" stroke="#ff2bd6" stroke-width="1" opacity="0.1"/><polygon points="287.3,282.8 280.1,295.1 265.9,295.1 258.7,282.8 265.8,270.4 280.1,270.4" fill="none" stroke="#ff2bd6" stroke-width="1" opacity="0.1"/><polygon points="326.3,271.4 319.1,283.8 304.9,283.8 297.7,271.4 304.8,259.1 319.1,259.1" fill="none" stroke="#ff2bd6" stroke-width="1" opacity="0.1"/><polygon points="365.3,282.8 358.1,295.1 343.9,295.1 336.7,282.8 343.8,270.4 358.1,270.4" fill="none" stroke="#ff2bd6" stroke-width="1" opacity="0.1"/><polygon points="404.3,271.4 397.1,283.8 382.9,283.8 375.7,271.4 382.8,259.1 397.1,259.1" fill="none" stroke="#ff2bd6" stroke-width="1" opacity="0.1"/><polygon points="443.3,282.8 436.1,295.1 421.9,295.1 414.7,282.8 421.8,270.4 436.1,270.4" fill="none" stroke="#ff2bd6" stroke-width="1" opacity="0.1"/><polygon points="482.3,271.4 475.1,283.8 460.9,283.8 453.7,271.4 460.8,259.1 475.1,259.1" fill="none" stroke="#ff2bd6" stroke-width="1" opacity="0.1"/><polygon points="521.3,282.8 514.1,295.1 499.9,295.1 492.7,282.8 499.8,270.4 514.1,270.4" fill="none" stroke="#ff2bd6" stroke-width="1" opacity="0.1"/><polygon points="14.3,294.1 7.2,306.4 -7.1,306.4 -14.3,294.1 -7.2,281.7 7.1,281.7" fill="none" stroke="#ff2bd6" stroke-width="1" opacity="0.1"/><polygon points="53.3,305.4 46.2,317.8 31.9,317.8 24.7,305.4 31.8,293.0 46.1,293.0" fill="none" stroke="#ff2bd6" stroke-width="1" opacity="0.1"/><polygon points="92.3,294.1 85.2,306.4 70.9,306.4 63.7,294.1 70.8,281.7 85.1,281.7" fill="none" stroke="#00fff2" stroke-width="1" opacity="0.55"/><polygon points="131.3,305.4 124.2,317.8 109.9,317.8 102.7,305.4 109.8,293.0 124.1,293.0" fill="none" stroke="#ff2bd6" stroke-width="1" opacity="0.1"/><polygon points="170.3,294.1 163.2,306.4 148.8,306.4 141.7,294.1 148.8,281.7 163.1,281.7" fill="none" stroke="#ff2bd6" stroke-width="1" opacity="0.1"/><polygon points="209.3,305.4 202.2,317.8 187.8,317.8 180.7,305.4 187.8,293.0 202.1,293.0" fill="none" stroke="#ff2bd6" stroke-width="1" opacity="0.1"/><polygon points="248.3,294.1 241.2,306.4 226.8,306.4 219.7,294.1 226.8,281.7 241.1,281.7" fill="none" stroke="#ff2bd6" stroke-width="1" opacity="0.1"/><polygon points="287.3,305.4 280.1,317.8 265.9,317.8 258.7,305.4 265.8,293.0 280.1,293.0" fill="none" stroke="#ff2bd6" stroke-width="1" opacity="0.1"/><polygon points="326.3,294.1 319.1,306.4 304.9,306.4 297.7,294.1 304.8,281.7 319.1,281.7" fill="none" stroke="#ff2bd6" stroke-width="1" opacity="0.1"/><polygon points="365.3,305.4 358.1,317.8 343.9,317.8 336.7,305.4 343.8,293.0 358.1,293.0" fill="none" stroke="#ff2bd6" stroke-width="1" opacity="0.1"/><polygon points="404.3,294.1 397.1,306.4 382.9,306.4 375.7,294.1 382.8,281.7 397.1,281.7" fill="none" stroke="#ff2bd6" stroke-width="1" opacity="0.1"/><polygon points="443.3,305.4 436.1,317.8 421.9,317.8 414.7,305.4 421.8,293.0 436.1,293.0" fill="none" stroke="#ff2bd6" stroke-width="1" opacity="0.1"/><polygon points="482.3,294.1 475.1,306.4 460.9,306.4 453.7,294.1 460.8,281.7 475.1,281.7" fill="none" stroke="#ff2bd6" stroke-width="1" opacity="0.1"/><polygon points="521.3,305.4 514.1,317.8 499.9,317.8 492.7,305.4 499.8,293.0 514.1,293.0" fill="none" stroke="#ff2bd6" stroke-width="1" opacity="0.1"/><polygon points="14.3,316.7 7.2,329.1 -7.1,329.1 -14.3,316.7 -7.2,304.3 7.1,304.3" fill="none" stroke="#ff2bd6" stroke-width="1" opacity="0.1"/><polygon points="53.3,328.0 46.2,340.4 31.9,340.4 24.7,328.0 31.8,315.6 46.1,315.6" fill="none" stroke="#ff2bd6" stroke-width="1" opacity="0.1"/><polygon points="92.3,316.7 85.2,329.1 70.9,329.1 63.7,316.7 70.8,304.3 85.1,304.3" fill="none" stroke="#ff2bd6" stroke-width="1" opacity="0.1"/><polygon points="131.3,328.0 124.2,340.4 109.9,340.4 102.7,328.0 109.8,315.6 124.1,315.6" fill="none" stroke="#ff2bd6" stroke-width="1" opacity="0.1"/><polygon points="170.3,316.7 163.2,329.1 148.8,329.1 141.7,316.7 148.8,304.3 163.1,304.3" fill="none" stroke="#00fff2" stroke-width="1" opacity="0.55"/><polygon points="209.3,328.0 202.2,340.4 187.8,340.4 180.7,328.0 187.8,315.6 202.1,315.6" fill="none" stroke="#ff2bd6" stroke-width="1" opacity="0.1"/><polygon points="248.3,316.7 241.2,329.1 226.8,329.1 219.7,316.7 226.8,304.3 241.1,304.3" fill="none" stroke="#ff2bd6" stroke-width="1" opacity="0.1"/><polygon points="287.3,328.0 280.1,340.4 265.9,340.4 258.7,328.0 265.8,315.6 280.1,315.6" fill="none" stroke="#ff2bd6" stroke-width="1" opacity="0.1"/><polygon points="326.3,316.7 319.1,329.1 304.9,329.1 297.7,316.7 304.8,304.3 319.1,304.3" fill="none" stroke="#ff2bd6" stroke-width="1" opacity="0.1"/><polygon points="365.3,328.0 358.1,340.4 343.9,340.4 336.7,328.0 343.8,315.6 358.1,315.6" fill="none" stroke="#ff2bd6" stroke-width="1" opacity="0.1"/><polygon points="404.3,316.7 397.1,329.1 382.9,329.1 375.7,316.7 382.8,304.3 397.1,304.3" fill="none" stroke="#ff2bd6" stroke-width="1" opacity="0.1"/><polygon points="443.3,328.0 436.1,340.4 421.9,340.4 414.7,328.0 421.8,315.6 436.1,315.6" fill="none" stroke="#ff2bd6" stroke-width="1" opacity="0.1"/><polygon points="482.3,316.7 475.1,329.1 460.9,329.1 453.7,316.7 460.8,304.3 475.1,304.3" fill="none" stroke="#ff2bd6" stroke-width="1" opacity="0.1"/><polygon points="521.3,328.0 514.1,340.4 499.9,340.4 492.7,328.0 499.8,315.6 514.1,315.6" fill="none" stroke="#ff2bd6" stroke-width="1" opacity="0.1"/></g>
<g><ellipse cx="250" cy="193.9" rx="150" ry="130" fill="#020108" opacity="0.55"/><path d="M210.1,125.7 C142.5,189.0 171.0,286.0 221.5,292.0 L278.5,292.0 C329.0,286.0 357.5,189.0 289.9,125.7 Z" fill="#00fff2" opacity="0.16"/><path d="M216.3,189.0 L241.0,189.0 L241.0,292.0 L216.3,292.0 Z" fill="#080614" stroke="#ff2bd6" stroke-width="1.2" opacity="0.92"/><path d="M259.0,189.0 L283.7,189.0 L283.7,292.0 L259.0,292.0 Z" fill="#080614" stroke="#ff2bd6" stroke-width="1.2" opacity="0.92"/><path d="M202.5,121.7 L297.5,121.7 L279.4,189.0 L220.6,189.0 Z" fill="#0a0818" stroke="#ff2bd6" stroke-width="1.6" opacity="0.95" filter="url(#glow-anime-chr-5)"/><line x1="250" y1="125.7" x2="250" y2="187.0" stroke="#00fff2" stroke-width="1" opacity="0.5"/><path d="M236.0,121.7 L244.0,107.7 L248.0,121.7 Z" fill="#0a0818" stroke="#ff2bd6" stroke-width="1.2" opacity="0.9"/><path d="M264.0,121.7 L256.0,107.7 L252.0,121.7 Z" fill="#0a0818" stroke="#ff2bd6" stroke-width="1.2" opacity="0.9"/><rect x="208.7" y="127.7" width="47.5" height="9" rx="4" fill="#0a0818" stroke="#ff2bd6" stroke-width="1.1"/><rect x="234.8" y="139.7" width="47.5" height="9" rx="4" fill="#0a0818" stroke="#ff2bd6" stroke-width="1.1"/><rect x="245" y="114.7" width="10" height="8" fill="#0a0818" stroke="#ff2bd6" stroke-width="1"/><circle cx="250" cy="95.7" r="23" fill="#0a0818" stroke="#ff2bd6" stroke-width="1.6" filter="url(#glow-anime-chr-5)"/><path d="M231.6,80.3 L232.6,61.3 L237.6,80.3 Z" fill="#0a0818" stroke="#ff2bd6" stroke-width="1"/><path d="M247.0,75.0 L247.0,56.0 L253.0,75.0 Z" fill="#0a0818" stroke="#ff2bd6" stroke-width="1"/><path d="M262.4,80.3 L269.4,70.3 L268.4,80.3 Z" fill="#0a0818" stroke="#ff2bd6" stroke-width="1"/><rect x="233.4" y="93.7" width="33.1" height="4.2" rx="2" fill="#00fff2" opacity="0.95" filter="url(#glow-anime-chr-5)"/></g>
<rect width="500" height="300" fill="url(#scan-anime-chr-5)"/>

<g stroke="#ff2bd6" stroke-width="2" fill="none" filter="url(#glow-anime-chr-5)" opacity="0.9">
  <path d="M10,26 L10,10 L26,10"/>
  <path d="M474,10 L490,10 L490,26"/>
  <path d="M10,274 L10,290 L26,290"/>
  <path d="M474,290 L490,290 L490,274"/>
</g>

<g font-family="monospace" font-size="11" fill="#ff2bd6">
  <text x="18" y="22">⛩ ANIME</text>
</g>
<text x="486" y="22" text-anchor="end" font-family="monospace" font-size="10" fill="#00fff2" opacity="0.9">CHARACTER</text>


<rect x="14" y="246.0" width="472" height="46.0" fill="#04020f" opacity="0.72" stroke="#ff2bd6" stroke-opacity="0.55" stroke-width="1"/>
<line x1="14" y1="246.0" x2="486" y2="246.0" stroke="#ff2bd6" stroke-width="1.2" opacity="0.9"/>

<text x="251" y="269.0" text-anchor="middle" font-family="'Courier New', monospace" font-weight="bold" font-size="16" fill="#00fff2" opacity="0.55" filter="url(#glow-anime-chr-5)"><tspan x="250" dy="0">JAX RYUU</tspan></text>
<text x="250" y="268.0" text-anchor="middle" font-family="'Courier New', monospace" font-weight="bold" font-size="16" fill="#ffffff" filter="url(#glow-anime-chr-5)"><tspan x="250" dy="0">JAX RYUU</tspan></text>
</svg>