<svg viewBox="0 0 500 300" xmlns="http://www.w3.org/2000/svg" role="img" aria-label="Skyblade Requiem — Official Trailer">
<defs>
  <linearGradient id="bg-anime-trl-1" x1="0" y1="0" x2="0" y2="1">
    <stop offset="0%" stop-color="#05030f"/>
    <stop offset="55%" stop-color="#0d0730"/>
    <stop offset="100%" stop-color="#000000"/>
  </linearGradient>
  <radialGradient id="sun-anime-trl-1" cx="50%" cy="100%" r="75%">
    <stop offset="0%" stop-color="#ff2bd6" stop-opacity="0.95"/>
    <stop offset="60%" stop-color="#00fff2" stop-opacity="0.35"/>
    <stop offset="100%" stop-color="#ff2bd6" stop-opacity="0"/>
  </radialGradient>
  <filter id="glow-anime-trl-1" x="-60%" y="-60%" width="220%" height="220%">
    <feGaussianBlur stdDeviation="4.2" result="blur"/>
    <feMerge>
      <feMergeNode in="blur"/>
      <feMergeNode in="SourceGraphic"/>
    </feMerge>
  </filter>
  <pattern id="scan-anime-trl-1" width="4" height="4" patternUnits="userSpaceOnUse">
    <rect width="4" height="2" fill="#ffffff" opacity="0.035"/>
  </pattern>
</defs>

<rect width="500" height="300" fill="url(#bg-anime-trl-1)"/>
<g><rect width="500" height="300" fill="#00fff2" opacity="0.04"/><rect x="9" y="0.0" width="500" height="15" fill="#ff2bd6" opacity="0.54"/><rect x="-7" y="18.8" width="500" height="14" fill="#00fff2" opacity="0.21"/><rect x="19" y="37.5" width="500" height="11" fill="#ff2bd6" opacity="0.18"/><rect x="17" y="56.2" width="500" height="16" fill="#00fff2" opacity="0.31"/><rect x="-20" y="75.0" width="500" height="11" fill="#ff2bd6" opacity="0.24"/><rect x="11" y="93.8" width="500" height="15" fill="#00fff2" opacity="0.50"/><rect x="-3" y="112.5" width="500" height="7" fill="#ff2bd6" opacity="0.42"/><rect x="19" y="131.2" width="500" height="16" fill="#00fff2" opacity="0.47"/><rect x="9" y="150.0" width="500" height="8" fill="#ff2bd6" opacity="0.25"/><rect x="-7" y="168.8" width="500" height="13" fill="#00fff2" opacity="0.42"/><rect x="19" y="187.5" width="500" height="11" fill="#ff2bd6" opacity="0.16"/><rect x="17" y="206.2" width="500" height="16" fill="#00fff2" opacity="0.51"/><rect x="-20" y="225.0" width="500" height="17" fill="#ff2bd6" opacity="0.42"/><rect x="11" y="243.8" width="500" height="14" fill="#00fff2" opacity="0.49"/><rect x="-3" y="262.5" width="500" height="15" fill="#ff2bd6" opacity="0.44"/><rect x="19" y="281.2" width="500" height="8" fill="#00fff2" opacity="0.17"/><rect x="0" y="98" width="500" height="1.5" fill="#ffffff" opacity="0.5"/><rect x="0" y="172" width="500" height="1.5" fill="#ffffff" opacity="0.5"/><rect x="0" y="166" width="500" height="1.5" fill="#ffffff" opacity="0.5"/><rect x="0" y="212" width="500" height="1.5" fill="#ffffff" opacity="0.5"/></g>
<g><ellipse cx="250" cy="194.4" rx="150" ry="130" fill="#020108" opacity="0.55"/><path d="M221.4,189.0 L243.0,189.0 L243.3,292.0 L221.7,292.0 Z" fill="#080614" stroke="#ff2bd6" stroke-width="1.2" opacity="0.92"/><path d="M257.0,189.0 L278.6,189.0 L278.3,292.0 L256.7,292.0 Z" fill="#080614" stroke="#ff2bd6" stroke-width="1.2" opacity="0.92"/><path d="M208.5,121.7 L291.5,121.7 L275.7,189.0 L224.3,189.0 Z" fill="#0a0818" stroke="#ff2bd6" stroke-width="1.6" opacity="0.95" filter="url(#glow-anime-trl-1)"/><line x1="250" y1="125.7" x2="250" y2="187.0" stroke="#00fff2" stroke-width="1" opacity="0.5"/><path d="M236.0,121.7 L244.0,107.7 L248.0,121.7 Z" fill="#0a0818" stroke="#ff2bd6" stroke-width="1.2" opacity="0.9"/><path d="M264.0,121.7 L256.0,107.7 L252.0,121.7 Z" fill="#0a0818" stroke="#ff2bd6" stroke-width="1.2" opacity="0.9"/><path d="M208.5,125.7 L198.5,183.0 L216.8,191.0" fill="none" stroke="#ff2bd6" stroke-width="9" stroke-linecap="round" opacity="0.9"/><line x1="291.5" y1="125.7" x2="291.5" y2="189.0" stroke="#ff2bd6" stroke-width="9" stroke-linecap="round" opacity="0.9"/><rect x="245" y="114.7" width="10" height="8" fill="#0a0818" stroke="#ff2bd6" stroke-width="1"/><circle cx="250" cy="96.7" r="22" fill="#0a0818" stroke="#ff2bd6" stroke-width="1.6" filter="url(#glow-anime-trl-1)"/><path d="M230.0,84.1 L231.0,65.1 L236.0,84.1 Z" fill="#0a0818" stroke="#ff2bd6" stroke-width="1"/><path d="M237.6,78.8 L241.6,63.8 L243.6,78.8 Z" fill="#0a0818" stroke="#ff2bd6" stroke-width="1"/><path d="M247.0,76.9 L254.0,59.9 L253.0,76.9 Z" fill="#0a0818" stroke="#ff2bd6" stroke-width="1"/><path d="M256.4,78.8 L259.4,66.8 L262.4,78.8 Z" fill="#0a0818" stroke="#ff2bd6" stroke-width="1"/><path d="M264.0,84.1 L269.0,74.1 L270.0,84.1 Z" fill="#0a0818" stroke="#ff2bd6" stroke-width="1"/><rect x="234.2" y="94.7" width="31.7" height="4.2" rx="2" fill="#00fff2" opacity="0.95" filter="url(#glow-anime-trl-1)"/></g>
<rect width="500" height="300" fill="url(#scan-anime-trl-1)"/>

<g stroke="#ff2bd6" stroke-width="2" fill="none" filter="url(#glow-anime-trl-1)" opacity="0.9">
  <path d="M10,26 L10,10 L26,10"/>
  <path d="M474,10 L490,10 L490,26"/>
  <path d="M10,274 L10,290 L26,290"/>
  <path d="M474,290 L490,290 L490,274"/>
</g>

<g font-family="monospace" font-size="11" fill="#ff2bd6">
  <text x="18" y="22">⛩ ANIME</text>
</g>
<text x="486" y="22" text-anchor="end" font-family="monospace" font-size="10" fill="#00fff2" opacity="0.9">TRAILER</text>

<text x="486" y="218.0" text-anchor="end" font-family="monospace" font-size="10" fill="#00fff2" opacity="0.9">UPCOMING</text>
<rect x="14" y="226.0" width="472" height="66.0" fill="#04020f" opacity="0.72" stroke="#ff2bd6" stroke-opacity="0.55" stroke-width="1"/>
<line x1="14" y1="226.0" x2="486" y2="226.0" stroke="#ff2bd6" stroke-width="1.2" opacity="0.9"/>

<text x="251" y="249.0" text-anchor="middle" font-family="'Courier New', monospace" font-weight="bold" font-size="16" fill="#00fff2" opacity="0.55" filter="url(#glow-anime-trl-1)"><tspan x="250" dy="0">SKYBLADE REQUIEM —</tspan><tspan x="250" dy="20">OFFICIAL TRAILER</tspan></text>
<text x="250" y="248.0" text-anchor="middle" font-family="'Courier New', monospace" font-weight="bold" font-size="16" fill="#ffffff" filter="url(#glow-anime-trl-1)"><tspan x="250" dy="0">SKYBLADE REQUIEM —</tspan><tspan x="250" dy="20">OFFICIAL TRAILER</tspan></text>
</svg>