<svg viewBox="0 0 500 300" xmlns="http://www.w3.org/2000/svg" role="img" aria-label="Behind the Scenes of Starforged Academy">
<defs>
  <linearGradient id="bg-anime-art-3" x1="0" y1="0" x2="0" y2="1">
    <stop offset="0%" stop-color="#05030f"/>
    <stop offset="55%" stop-color="#0d0730"/>
    <stop offset="100%" stop-color="#000000"/>
  </linearGradient>
  <radialGradient id="sun-anime-art-3" cx="50%" cy="100%" r="75%">
    <stop offset="0%" stop-color="#ff2bd6" stop-opacity="0.95"/>
    <stop offset="60%" stop-color="#00fff2" stop-opacity="0.35"/>
    <stop offset="100%" stop-color="#ff2bd6" stop-opacity="0"/>
  </radialGradient>
  <filter id="glow-anime-art-3" x="-60%" y="-60%" width="220%" height="220%">
    <feGaussianBlur stdDeviation="4.2" result="blur"/>
    <feMerge>
      <feMergeNode in="blur"/>
      <feMergeNode in="SourceGraphic"/>
    </feMerge>
  </filter>
  <pattern id="scan-anime-art-3" width="4" height="4" patternUnits="userSpaceOnUse">
    <rect width="4" height="2" fill="#ffffff" opacity="0.035"/>
  </pattern>
</defs>

<rect width="500" height="300" fill="url(#bg-anime-art-3)"/>
<g><circle cx="250" cy="150" r="20" fill="none" stroke="#00fff2" stroke-width="1.2" opacity="0.50"/><circle cx="250" cy="150" r="40" fill="none" stroke="#ff2bd6" stroke-width="1.2" opacity="0.45"/><circle cx="250" cy="150" r="60" fill="none" stroke="#00fff2" stroke-width="1.2" opacity="0.40"/><circle cx="250" cy="150" r="80" fill="none" stroke="#ff2bd6" stroke-width="1.2" opacity="0.35"/><circle cx="250" cy="150" r="100" fill="none" stroke="#00fff2" stroke-width="1.2" opacity="0.30"/><circle cx="250" cy="150" r="120" fill="none" stroke="#ff2bd6" stroke-width="1.2" opacity="0.25"/><circle cx="250" cy="150" r="140" fill="none" stroke="#00fff2" stroke-width="1.2" opacity="0.20"/><circle cx="390.0" cy="151.6" r="2.4" fill="#00fff2" opacity="0.85" filter="url(#glow-anime-art-3)"/><circle cx="263.3" cy="289.4" r="2.4" fill="#00fff2" opacity="0.85" filter="url(#glow-anime-art-3)"/><circle cx="251.2" cy="290.0" r="2.4" fill="#00fff2" opacity="0.85" filter="url(#glow-anime-art-3)"/><circle cx="122.9" cy="208.8" r="2.4" fill="#00fff2" opacity="0.85" filter="url(#glow-anime-art-3)"/><circle cx="122.2" cy="207.1" r="2.4" fill="#00fff2" opacity="0.85" filter="url(#glow-anime-art-3)"/><circle cx="137.0" cy="67.4" r="2.4" fill="#00fff2" opacity="0.85" filter="url(#glow-anime-art-3)"/><circle cx="178.7" cy="29.5" r="2.4" fill="#00fff2" opacity="0.85" filter="url(#glow-anime-art-3)"/><circle cx="333.9" cy="37.9" r="2.4" fill="#00fff2" opacity="0.85" filter="url(#glow-anime-art-3)"/><circle cx="296.4" cy="17.9" r="2.4" fill="#00fff2" opacity="0.85" filter="url(#glow-anime-art-3)"/><circle cx="385.3" cy="114.1" r="2.4" fill="#00fff2" opacity="0.85" filter="url(#glow-anime-art-3)"/></g>
<g><ellipse cx="250" cy="179.8" rx="150" ry="130" fill="#020108" opacity="0.55"/><path d="M213.5,95.6 C153.7,170.8 179.8,286.0 223.9,292.0 L276.1,292.0 C320.2,286.0 346.3,170.8 286.5,95.6 Z" fill="#00fff2" opacity="0.16"/><path d="M218.4,170.8 L241.0,170.8 L241.0,292.0 L218.4,292.0 Z" fill="#080614" stroke="#ff2bd6" stroke-width="1.2" opacity="0.92"/><path d="M259.0,170.8 L281.6,170.8 L281.6,292.0 L259.0,292.0 Z" fill="#080614" stroke="#ff2bd6" stroke-width="1.2" opacity="0.92"/><path d="M206.5,91.6 L293.5,91.6 L277.0,170.8 L223.0,170.8 Z" fill="#0a0818" stroke="#ff2bd6" stroke-width="1.6" opacity="0.95" filter="url(#glow-anime-art-3)"/><line x1="250" y1="95.6" x2="250" y2="168.8" stroke="#00fff2" stroke-width="1" opacity="0.5"/><path d="M236.0,91.6 L244.0,77.6 L248.0,91.6 Z" fill="#0a0818" stroke="#ff2bd6" stroke-width="1.2" opacity="0.9"/><path d="M264.0,91.6 L256.0,77.6 L252.0,91.6 Z" fill="#0a0818" stroke="#ff2bd6" stroke-width="1.2" opacity="0.9"/><line x1="206.5" y1="95.6" x2="210.0" y2="178.8" stroke="#ff2bd6" stroke-width="9" stroke-linecap="round" opacity="0.9"/><line x1="293.5" y1="95.6" x2="290.0" y2="178.8" stroke="#ff2bd6" stroke-width="9" stroke-linecap="round" opacity="0.9"/><rect x="245" y="84.6" width="10" height="8" fill="#0a0818" stroke="#ff2bd6" stroke-width="1"/><circle cx="250" cy="67.6" r="21" fill="#0a0818" stroke="#ff2bd6" stroke-width="1.6" filter="url(#glow-anime-art-3)"/><path d="M230.8,55.6 L236.8,42.6 L236.8,55.6 Z" fill="#0a0818" stroke="#ff2bd6" stroke-width="1"/><path d="M238.1,50.5 L236.1,39.5 L244.1,50.5 Z" fill="#0a0818" stroke="#ff2bd6" stroke-width="1"/><path d="M247.0,48.7 L248.0,34.7 L253.0,48.7 Z" fill="#0a0818" stroke="#ff2bd6" stroke-width="1"/><path d="M255.9,50.5 L254.9,36.5 L261.9,50.5 Z" fill="#0a0818" stroke="#ff2bd6" stroke-width="1"/><path d="M263.2,55.6 L265.2,39.6 L269.2,55.6 Z" fill="#0a0818" stroke="#ff2bd6" stroke-width="1"/><rect x="234.9" y="65.6" width="30.2" height="4.2" rx="2" fill="#00fff2" opacity="0.95" filter="url(#glow-anime-art-3)"/></g>
<rect width="500" height="300" fill="url(#scan-anime-art-3)"/>

<g stroke="#ff2bd6" stroke-width="2" fill="none" filter="url(#glow-anime-art-3)" opacity="0.9">
  <path d="M10,26 L10,10 L26,10"/>
  <path d="M474,10 L490,10 L490,26"/>
  <path d="M10,274 L10,290 L26,290"/>
  <path d="M474,290 L490,290 L490,274"/>
</g>

<g font-family="monospace" font-size="11" fill="#ff2bd6">
  <text x="18" y="22">⛩ ANIME</text>
</g>
<text x="486" y="22" text-anchor="end" font-family="monospace" font-size="10" fill="#00fff2" opacity="0.9">ARTICLE</text>


<rect x="14" y="226.0" width="472" height="66.0" fill="#04020f" opacity="0.72" stroke="#ff2bd6" stroke-opacity="0.55" stroke-width="1"/>
<line x1="14" y1="226.0" x2="486" y2="226.0" stroke="#ff2bd6" stroke-width="1.2" opacity="0.9"/>

<text x="251" y="249.0" text-anchor="middle" font-family="'Courier New', monospace" font-weight="bold" font-size="16" fill="#00fff2" opacity="0.55" filter="url(#glow-anime-art-3)"><tspan x="250" dy="0">BEHIND THE SCENES OF</tspan><tspan x="250" dy="20">STARFORGED ACADEMY</tspan></text>
<text x="250" y="248.0" text-anchor="middle" font-family="'Courier New', monospace" font-weight="bold" font-size="16" fill="#ffffff" filter="url(#glow-anime-art-3)"><tspan x="250" dy="0">BEHIND THE SCENES OF</tspan><tspan x="250" dy="20">STARFORGED ACADEMY</tspan></text>
</svg>