<svg viewBox="0 0 500 300" xmlns="http://www.w3.org/2000/svg" role="img" aria-label="LUMEN-7: A Beginner&#x27;s Guide">
<defs>
  <linearGradient id="bg-kpop-art-1" x1="0" y1="0" x2="0" y2="1">
    <stop offset="0%" stop-color="#05030f"/>
    <stop offset="55%" stop-color="#0d0730"/>
    <stop offset="100%" stop-color="#000000"/>
  </linearGradient>
  <radialGradient id="sun-kpop-art-1" cx="50%" cy="100%" r="75%">
    <stop offset="0%" stop-color="#b026ff" stop-opacity="0.95"/>
    <stop offset="60%" stop-color="#ff2bd6" stop-opacity="0.35"/>
    <stop offset="100%" stop-color="#b026ff" stop-opacity="0"/>
  </radialGradient>
  <filter id="glow-kpop-art-1" x="-60%" y="-60%" width="220%" height="220%">
    <feGaussianBlur stdDeviation="4.2" result="blur"/>
    <feMerge>
      <feMergeNode in="blur"/>
      <feMergeNode in="SourceGraphic"/>
    </feMerge>
  </filter>
  <pattern id="scan-kpop-art-1" width="4" height="4" patternUnits="userSpaceOnUse">
    <rect width="4" height="2" fill="#ffffff" opacity="0.035"/>
  </pattern>
</defs>

<rect width="500" height="300" fill="url(#bg-kpop-art-1)"/>
<g><circle cx="250" cy="150" r="130" fill="url(#sun-kpop-art-1)" opacity="0.5"/><line x1="250" y1="150" x2="417.0" y2="150.0" stroke="#ff2bd6" stroke-width="1" opacity="0.28"/><line x1="250" y1="150" x2="435.5" y2="199.7" stroke="#b026ff" stroke-width="1" opacity="0.28"/><line x1="250" y1="150" x2="396.4" y2="234.5" stroke="#b026ff" stroke-width="1" opacity="0.28"/><line x1="250" y1="150" x2="399.9" y2="299.9" stroke="#ff2bd6" stroke-width="1" opacity="0.28"/><line x1="250" y1="150" x2="358.5" y2="337.9" stroke="#b026ff" stroke-width="1" opacity="0.28"/><line x1="250" y1="150" x2="299.2" y2="333.5" stroke="#b026ff" stroke-width="1" opacity="0.28"/><line x1="250" y1="150" x2="250.0" y2="367.0" stroke="#ff2bd6" stroke-width="1" opacity="0.28"/><line x1="250" y1="150" x2="196.9" y2="348.0" stroke="#b026ff" stroke-width="1" opacity="0.28"/><line x1="250" y1="150" x2="170.0" y2="288.6" stroke="#b026ff" stroke-width="1" opacity="0.28"/><line x1="250" y1="150" x2="122.7" y2="277.3" stroke="#ff2bd6" stroke-width="1" opacity="0.28"/><line x1="250" y1="150" x2="109.7" y2="231.0" stroke="#b026ff" stroke-width="1" opacity="0.28"/><line x1="250" y1="150" x2="79.0" y2="195.8" stroke="#b026ff" stroke-width="1" opacity="0.28"/><line x1="250" y1="150" x2="54.0" y2="150.0" stroke="#ff2bd6" stroke-width="1" opacity="0.28"/><line x1="250" y1="150" x2="38.5" y2="93.3" stroke="#b026ff" stroke-width="1" opacity="0.28"/><line x1="250" y1="150" x2="84.6" y2="54.5" stroke="#b026ff" stroke-width="1" opacity="0.28"/><line x1="250" y1="150" x2="136.2" y2="36.2" stroke="#ff2bd6" stroke-width="1" opacity="0.28"/><line x1="250" y1="150" x2="166.5" y2="5.4" stroke="#b026ff" stroke-width="1" opacity="0.28"/><line x1="250" y1="150" x2="200.3" y2="-35.5" stroke="#b026ff" stroke-width="1" opacity="0.28"/><line x1="250" y1="150" x2="250.0" y2="-19.0" stroke="#ff2bd6" stroke-width="1" opacity="0.28"/><line x1="250" y1="150" x2="304.9" y2="-54.8" stroke="#b026ff" stroke-width="1" opacity="0.28"/><line x1="250" y1="150" x2="358.5" y2="-37.9" stroke="#b026ff" stroke-width="1" opacity="0.28"/><line x1="250" y1="150" x2="384.4" y2="15.6" stroke="#ff2bd6" stroke-width="1" opacity="0.28"/><line x1="250" y1="150" x2="437.9" y2="41.5" stroke="#b026ff" stroke-width="1" opacity="0.28"/><line x1="250" y1="150" x2="448.0" y2="96.9" stroke="#b026ff" stroke-width="1" opacity="0.28"/><circle cx="250" cy="150" r="40" fill="none" stroke="#ff2bd6" stroke-width="1" opacity="0.35"/><circle cx="250" cy="150" r="70" fill="none" stroke="#ff2bd6" stroke-width="1" opacity="0.35"/><circle cx="250" cy="150" r="100" fill="none" stroke="#ff2bd6" stroke-width="1" opacity="0.35"/></g>
<g><ellipse cx="250" cy="191.3" rx="150" ry="130" fill="#020108" opacity="0.55"/><path d="M218.3,185.9 L242.0,185.9 L242.6,292.0 L218.9,292.0 Z" fill="#080614" stroke="#b026ff" stroke-width="1.2" opacity="0.92"/><path d="M258.0,185.9 L281.7,185.9 L281.1,292.0 L257.4,292.0 Z" fill="#080614" stroke="#b026ff" stroke-width="1.2" opacity="0.92"/><path d="M204.5,116.6 L295.5,116.6 L278.2,185.9 L221.8,185.9 Z" fill="#0a0818" stroke="#b026ff" stroke-width="1.6" opacity="0.95" filter="url(#glow-kpop-art-1)"/><line x1="250" y1="120.6" x2="250" y2="183.9" stroke="#ff2bd6" stroke-width="1" opacity="0.5"/><path d="M236.0,116.6 L244.0,102.6 L248.0,116.6 Z" fill="#0a0818" stroke="#b026ff" stroke-width="1.2" opacity="0.9"/><path d="M264.0,116.6 L256.0,102.6 L252.0,116.6 Z" fill="#0a0818" stroke="#b026ff" stroke-width="1.2" opacity="0.9"/><rect x="210.1" y="122.6" width="45.5" height="9" rx="4" fill="#0a0818" stroke="#b026ff" stroke-width="1.1"/><rect x="235.4" y="134.6" width="45.5" height="9" rx="4" fill="#0a0818" stroke="#b026ff" stroke-width="1.1"/><rect x="245" y="109.6" width="10" height="8" fill="#0a0818" stroke="#b026ff" stroke-width="1"/><circle cx="250" cy="90.6" r="23" fill="#0a0818" stroke="#b026ff" stroke-width="1.6" filter="url(#glow-kpop-art-1)"/><path d="M231.6,75.2 L238.6,58.2 L237.6,75.2 Z" fill="#0a0818" stroke="#b026ff" stroke-width="1"/><path d="M247.0,69.9 L247.0,59.9 L253.0,69.9 Z" fill="#0a0818" stroke="#b026ff" stroke-width="1"/><path d="M262.4,75.2 L267.4,58.2 L268.4,75.2 Z" fill="#0a0818" stroke="#b026ff" stroke-width="1"/><rect x="233.4" y="88.6" width="33.1" height="4.2" rx="2" fill="#ff2bd6" opacity="0.95" filter="url(#glow-kpop-art-1)"/></g>
<rect width="500" height="300" fill="url(#scan-kpop-art-1)"/>

<g stroke="#b026ff" stroke-width="2" fill="none" filter="url(#glow-kpop-art-1)" opacity="0.9">
  <path d="M10,26 L10,10 L26,10"/>
  <path d="M474,10 L490,10 L490,26"/>
  <path d="M10,274 L10,290 L26,290"/>
  <path d="M474,290 L490,290 L490,274"/>
</g>

<g font-family="monospace" font-size="11" fill="#b026ff">
  <text x="18" y="22">🎤 K-POP</text>
</g>
<text x="486" y="22" text-anchor="end" font-family="monospace" font-size="10" fill="#ff2bd6" opacity="0.9">ARTICLE</text>


<rect x="14" y="226.0" width="472" height="66.0" fill="#04020f" opacity="0.72" stroke="#b026ff" stroke-opacity="0.55" stroke-width="1"/>
<line x1="14" y1="226.0" x2="486" y2="226.0" stroke="#b026ff" stroke-width="1.2" opacity="0.9"/>

<text x="251" y="249.0" text-anchor="middle" font-family="'Courier New', monospace" font-weight="bold" font-size="16" fill="#ff2bd6" opacity="0.55" filter="url(#glow-kpop-art-1)"><tspan x="250" dy="0">LUMEN-7: A BEGINNER&#x27;S</tspan><tspan x="250" dy="20">GUIDE</tspan></text>
<text x="250" y="248.0" text-anchor="middle" font-family="'Courier New', monospace" font-weight="bold" font-size="16" fill="#ffffff" filter="url(#glow-kpop-art-1)"><tspan x="250" dy="0">LUMEN-7: A BEGINNER&#x27;S</tspan><tspan x="250" dy="20">GUIDE</tspan></text>
</svg>