<svg viewBox="0 0 500 300" xmlns="http://www.w3.org/2000/svg" role="img" aria-label="Ink &amp; Ember Fan Summit">
<defs>
  <linearGradient id="bg-manga-evt-3" x1="0" y1="0" x2="0" y2="1">
    <stop offset="0%" stop-color="#05030f"/>
    <stop offset="55%" stop-color="#0d0730"/>
    <stop offset="100%" stop-color="#000000"/>
  </linearGradient>
  <radialGradient id="sun-manga-evt-3" cx="50%" cy="100%" r="75%">
    <stop offset="0%" stop-color="#ff003c" stop-opacity="0.95"/>
    <stop offset="60%" stop-color="#00fff2" stop-opacity="0.35"/>
    <stop offset="100%" stop-color="#ff003c" stop-opacity="0"/>
  </radialGradient>
  <filter id="glow-manga-evt-3" x="-60%" y="-60%" width="220%" height="220%">
    <feGaussianBlur stdDeviation="4.2" result="blur"/>
    <feMerge>
      <feMergeNode in="blur"/>
      <feMergeNode in="SourceGraphic"/>
    </feMerge>
  </filter>
  <pattern id="scan-manga-evt-3" width="4" height="4" patternUnits="userSpaceOnUse">
    <rect width="4" height="2" fill="#ffffff" opacity="0.035"/>
  </pattern>
</defs>

<rect width="500" height="300" fill="url(#bg-manga-evt-3)"/>
<g><circle cx="250" cy="150" r="130" fill="url(#sun-manga-evt-3)" opacity="0.5"/><line x1="250" y1="150" x2="421.0" y2="150.0" stroke="#00fff2" stroke-width="1" opacity="0.28"/><line x1="250" y1="150" x2="458.6" y2="205.9" stroke="#ff003c" stroke-width="1" opacity="0.28"/><line x1="250" y1="150" x2="392.9" y2="232.5" stroke="#ff003c" stroke-width="1" opacity="0.28"/><line x1="250" y1="150" x2="375.2" y2="275.2" stroke="#00fff2" stroke-width="1" opacity="0.28"/><line x1="250" y1="150" x2="346.5" y2="317.1" stroke="#ff003c" stroke-width="1" opacity="0.28"/><line x1="250" y1="150" x2="303.6" y2="349.9" stroke="#ff003c" stroke-width="1" opacity="0.28"/><line x1="250" y1="150" x2="250.0" y2="357.0" stroke="#00fff2" stroke-width="1" opacity="0.28"/><line x1="250" y1="150" x2="207.8" y2="307.4" stroke="#ff003c" stroke-width="1" opacity="0.28"/><line x1="250" y1="150" x2="151.0" y2="321.5" stroke="#ff003c" stroke-width="1" opacity="0.28"/><line x1="250" y1="150" x2="99.4" y2="300.6" stroke="#00fff2" stroke-width="1" opacity="0.28"/><line x1="250" y1="150" x2="104.5" y2="234.0" stroke="#ff003c" stroke-width="1" opacity="0.28"/><line x1="250" y1="150" x2="67.4" y2="198.9" stroke="#ff003c" stroke-width="1" opacity="0.28"/><line x1="250" y1="150" x2="78.0" y2="150.0" stroke="#00fff2" stroke-width="1" opacity="0.28"/><line x1="250" y1="150" x2="46.2" y2="95.4" stroke="#ff003c" stroke-width="1" opacity="0.28"/><line x1="250" y1="150" x2="105.4" y2="66.5" stroke="#ff003c" stroke-width="1" opacity="0.28"/><line x1="250" y1="150" x2="110.7" y2="10.7" stroke="#00fff2" stroke-width="1" opacity="0.28"/><line x1="250" y1="150" x2="164.5" y2="1.9" stroke="#ff003c" stroke-width="1" opacity="0.28"/><line x1="250" y1="150" x2="194.1" y2="-58.6" stroke="#ff003c" stroke-width="1" opacity="0.28"/><line x1="250" y1="150" x2="250.0" y2="-15.0" stroke="#00fff2" stroke-width="1" opacity="0.28"/><line x1="250" y1="150" x2="295.8" y2="-21.0" stroke="#ff003c" stroke-width="1" opacity="0.28"/><line x1="250" y1="150" x2="346.5" y2="-17.1" stroke="#ff003c" stroke-width="1" opacity="0.28"/><line x1="250" y1="150" x2="396.4" y2="3.6" stroke="#00fff2" stroke-width="1" opacity="0.28"/><line x1="250" y1="150" x2="429.3" y2="46.5" stroke="#ff003c" stroke-width="1" opacity="0.28"/><line x1="250" y1="150" x2="407.4" y2="107.8" stroke="#ff003c" stroke-width="1" opacity="0.28"/><circle cx="250" cy="150" r="40" fill="none" stroke="#00fff2" stroke-width="1" opacity="0.35"/><circle cx="250" cy="150" r="70" fill="none" stroke="#00fff2" stroke-width="1" opacity="0.35"/><circle cx="250" cy="150" r="100" fill="none" stroke="#00fff2" stroke-width="1" opacity="0.35"/></g>
<g><ellipse cx="250" cy="193.0" rx="150" ry="130" fill="#020108" opacity="0.55"/><path d="M219.8,188.0 L244.0,188.0 L245.2,292.0 L221.0,292.0 Z" fill="#080614" stroke="#ff003c" stroke-width="1.2" opacity="0.92"/><path d="M256.0,188.0 L280.2,188.0 L279.0,292.0 L254.8,292.0 Z" fill="#080614" stroke="#ff003c" stroke-width="1.2" opacity="0.92"/><path d="M203.5,120.0 L296.5,120.0 L278.8,188.0 L221.2,188.0 Z" fill="#0a0818" stroke="#ff003c" stroke-width="1.6" opacity="0.95" filter="url(#glow-manga-evt-3)"/><line x1="250" y1="124.0" x2="250" y2="186.0" stroke="#00fff2" stroke-width="1" opacity="0.5"/><path d="M236.0,120.0 L244.0,106.0 L248.0,120.0 Z" fill="#0a0818" stroke="#ff003c" stroke-width="1.2" opacity="0.9"/><path d="M264.0,120.0 L256.0,106.0 L252.0,120.0 Z" fill="#0a0818" stroke="#ff003c" stroke-width="1.2" opacity="0.9"/><line x1="203.5" y1="124.0" x2="207.2" y2="196.0" stroke="#ff003c" stroke-width="9" stroke-linecap="round" opacity="0.9"/><line x1="296.5" y1="124.0" x2="292.8" y2="196.0" stroke="#ff003c" stroke-width="9" stroke-linecap="round" opacity="0.9"/><rect x="245" y="113.0" width="10" height="8" fill="#0a0818" stroke="#ff003c" stroke-width="1"/><circle cx="250" cy="94.0" r="23" fill="#0a0818" stroke="#ff003c" stroke-width="1.6" filter="url(#glow-manga-evt-3)"/><path d="M229.3,80.8 L232.3,67.8 L235.3,80.8 Z" fill="#0a0818" stroke="#ff003c" stroke-width="1"/><path d="M237.2,75.3 L242.2,58.3 L243.2,75.3 Z" fill="#0a0818" stroke="#ff003c" stroke-width="1"/><path d="M247.0,73.3 L248.0,56.3 L253.0,73.3 Z" fill="#0a0818" stroke="#ff003c" stroke-width="1"/><path d="M256.8,75.3 L261.8,62.3 L262.8,75.3 Z" fill="#0a0818" stroke="#ff003c" stroke-width="1"/><path d="M264.7,80.8 L269.7,62.8 L270.7,80.8 Z" fill="#0a0818" stroke="#ff003c" stroke-width="1"/><rect x="233.4" y="92.0" width="33.1" height="4.2" rx="2" fill="#00fff2" opacity="0.95" filter="url(#glow-manga-evt-3)"/></g>
<rect width="500" height="300" fill="url(#scan-manga-evt-3)"/>

<g stroke="#ff003c" stroke-width="2" fill="none" filter="url(#glow-manga-evt-3)" opacity="0.9">
  <path d="M10,26 L10,10 L26,10"/>
  <path d="M474,10 L490,10 L490,26"/>
  <path d="M10,274 L10,290 L26,290"/>
  <path d="M474,290 L490,290 L490,274"/>
</g>

<g font-family="monospace" font-size="11" fill="#ff003c">
  <text x="18" y="22">📖 MANGA</text>
</g>
<text x="486" y="22" text-anchor="end" font-family="monospace" font-size="10" fill="#00fff2" opacity="0.9">EVENT</text>

<text x="486" y="238.0" text-anchor="end" font-family="monospace" font-size="10" fill="#00fff2" opacity="0.9">COMPLETED</text>
<rect x="14" y="246.0" width="472" height="46.0" fill="#04020f" opacity="0.72" stroke="#ff003c" stroke-opacity="0.55" stroke-width="1"/>
<line x1="14" y1="246.0" x2="486" y2="246.0" stroke="#ff003c" stroke-width="1.2" opacity="0.9"/>

<text x="251" y="269.0" text-anchor="middle" font-family="'Courier New', monospace" font-weight="bold" font-size="16" fill="#00fff2" opacity="0.55" filter="url(#glow-manga-evt-3)"><tspan x="250" dy="0">INK &amp; EMBER FAN SUMMIT</tspan></text>
<text x="250" y="268.0" text-anchor="middle" font-family="'Courier New', monospace" font-weight="bold" font-size="16" fill="#ffffff" filter="url(#glow-manga-evt-3)"><tspan x="250" dy="0">INK &amp; EMBER FAN SUMMIT</tspan></text>
</svg>