<svg viewBox="0 0 500 300" xmlns="http://www.w3.org/2000/svg" role="img" aria-label="Midnight Cartographer Fan Summit">
<defs>
  <linearGradient id="bg-movies-evt-2" x1="0" y1="0" x2="0" y2="1">
    <stop offset="0%" stop-color="#05030f"/>
    <stop offset="55%" stop-color="#0d0730"/>
    <stop offset="100%" stop-color="#000000"/>
  </linearGradient>
  <radialGradient id="sun-movies-evt-2" cx="50%" cy="100%" r="75%">
    <stop offset="0%" stop-color="#ff8800" stop-opacity="0.95"/>
    <stop offset="60%" stop-color="#0088ff" stop-opacity="0.35"/>
    <stop offset="100%" stop-color="#ff8800" stop-opacity="0"/>
  </radialGradient>
  <filter id="glow-movies-evt-2" x="-60%" y="-60%" width="220%" height="220%">
    <feGaussianBlur stdDeviation="4.2" result="blur"/>
    <feMerge>
      <feMergeNode in="blur"/>
      <feMergeNode in="SourceGraphic"/>
    </feMerge>
  </filter>
  <pattern id="scan-movies-evt-2" width="4" height="4" patternUnits="userSpaceOnUse">
    <rect width="4" height="2" fill="#ffffff" opacity="0.035"/>
  </pattern>
</defs>

<rect width="500" height="300" fill="url(#bg-movies-evt-2)"/>
<g><circle cx="250" cy="184" r="89" fill="url(#sun-movies-evt-2)"/><rect x="0.0" y="107.0" width="26.9" height="71" fill="#0a0820" stroke="#ff8800" stroke-opacity="0.35" stroke-width="0.6"/><rect x="18.9" y="112.0" width="4" height="3" fill="#0d0b2a" opacity="0.85"/><rect x="38.5" y="137.0" width="26.9" height="41" fill="#0a0820" stroke="#ff8800" stroke-opacity="0.35" stroke-width="0.6"/><rect x="57.4" y="142.0" width="4" height="3" fill="#0d0b2a" opacity="0.85"/><rect x="76.9" y="140.0" width="26.9" height="38" fill="#0a0820" stroke="#ff8800" stroke-opacity="0.35" stroke-width="0.6"/><rect x="95.8" y="145.0" width="4" height="3" fill="#ff8800" opacity="0.85"/><rect x="115.4" y="125.0" width="26.9" height="53" fill="#0a0820" stroke="#ff8800" stroke-opacity="0.35" stroke-width="0.6"/><rect x="134.3" y="130.0" width="4" height="3" fill="#0d0b2a" opacity="0.85"/><rect x="153.8" y="114.0" width="26.9" height="64" fill="#0a0820" stroke="#ff8800" stroke-opacity="0.35" stroke-width="0.6"/><rect x="172.8" y="119.0" width="4" height="3" fill="#ff8800" opacity="0.85"/><rect x="192.3" y="117.0" width="26.9" height="61" fill="#0a0820" stroke="#ff8800" stroke-opacity="0.35" stroke-width="0.6"/><rect x="211.2" y="122.0" width="4" height="3" fill="#0d0b2a" opacity="0.85"/><rect x="230.8" y="118.0" width="26.9" height="60" fill="#0a0820" stroke="#ff8800" stroke-opacity="0.35" stroke-width="0.6"/><rect x="249.7" y="123.0" width="4" height="3" fill="#ff8800" opacity="0.85"/><rect x="269.2" y="136.0" width="26.9" height="42" fill="#0a0820" stroke="#ff8800" stroke-opacity="0.35" stroke-width="0.6"/><rect x="288.2" y="141.0" width="4" height="3" fill="#0d0b2a" opacity="0.85"/><rect x="307.7" y="128.0" width="26.9" height="50" fill="#0a0820" stroke="#ff8800" stroke-opacity="0.35" stroke-width="0.6"/><rect x="326.6" y="133.0" width="4" height="3" fill="#ff8800" opacity="0.85"/><rect x="346.2" y="151.0" width="26.9" height="27" fill="#0a0820" stroke="#ff8800" stroke-opacity="0.35" stroke-width="0.6"/><rect x="365.1" y="156.0" width="4" height="3" fill="#0d0b2a" opacity="0.85"/><rect x="384.6" y="107.0" width="26.9" height="71" fill="#0a0820" stroke="#ff8800" stroke-opacity="0.35" stroke-width="0.6"/><rect x="403.5" y="112.0" width="4" height="3" fill="#0d0b2a" opacity="0.85"/><rect x="423.1" y="127.0" width="26.9" height="51" fill="#0a0820" stroke="#ff8800" stroke-opacity="0.35" stroke-width="0.6"/><rect x="442.0" y="132.0" width="4" height="3" fill="#0d0b2a" opacity="0.85"/><rect x="461.5" y="140.0" width="26.9" height="38" fill="#0a0820" stroke="#ff8800" stroke-opacity="0.35" stroke-width="0.6"/><rect x="480.5" y="145.0" width="4" height="3" fill="#ff8800" opacity="0.85"/><line x1="0" y1="178" x2="500" y2="178" stroke="#ff8800" stroke-width="1.4" opacity="0.8" filter="url(#glow-movies-evt-2)"/><line x1="0" y1="180.3" x2="500" y2="180.3" stroke="#ff8800" stroke-width="1" opacity="0.16"/><line x1="0" y1="186.1" x2="500" y2="186.1" stroke="#ff8800" stroke-width="1" opacity="0.20"/><line x1="0" y1="194.9" x2="500" y2="194.9" stroke="#ff8800" stroke-width="1" opacity="0.24"/><line x1="0" y1="206.3" x2="500" y2="206.3" stroke="#ff8800" stroke-width="1" opacity="0.28"/><line x1="0" y1="220.4" x2="500" y2="220.4" stroke="#ff8800" stroke-width="1" opacity="0.31"/><line x1="0" y1="236.8" x2="500" y2="236.8" stroke="#ff8800" stroke-width="1" opacity="0.35"/><line x1="0" y1="255.6" x2="500" y2="255.6" stroke="#ff8800" stroke-width="1" opacity="0.39"/><line x1="0" y1="276.7" x2="500" y2="276.7" stroke="#ff8800" stroke-width="1" opacity="0.43"/><line x1="0" y1="300.0" x2="500" y2="300.0" stroke="#ff8800" stroke-width="1" opacity="0.47"/><line x1="0" y1="300" x2="250" y2="178" stroke="#ff8800" stroke-width="1" opacity="0.22"/><line x1="42" y1="300" x2="250" y2="178" stroke="#ff8800" stroke-width="1" opacity="0.22"/><line x1="84" y1="300" x2="250" y2="178" stroke="#ff8800" stroke-width="1" opacity="0.22"/><line x1="126" y1="300" x2="250" y2="178" stroke="#ff8800" stroke-width="1" opacity="0.22"/><line x1="168" y1="300" x2="250" y2="178" stroke="#ff8800" stroke-width="1" opacity="0.22"/><line x1="210" y1="300" x2="250" y2="178" stroke="#ff8800" stroke-width="1" opacity="0.22"/><line x1="252" y1="300" x2="250" y2="178" stroke="#ff8800" stroke-width="1" opacity="0.22"/><line x1="294" y1="300" x2="250" y2="178" stroke="#ff8800" stroke-width="1" opacity="0.22"/><line x1="336" y1="300" x2="250" y2="178" stroke="#ff8800" stroke-width="1" opacity="0.22"/><line x1="378" y1="300" x2="250" y2="178" stroke="#ff8800" stroke-width="1" opacity="0.22"/><line x1="420" y1="300" x2="250" y2="178" stroke="#ff8800" stroke-width="1" opacity="0.22"/><line x1="462" y1="300" x2="250" y2="178" stroke="#ff8800" stroke-width="1" opacity="0.22"/></g>
<g><ellipse cx="250" cy="179.7" rx="150" ry="130" fill="#020108" opacity="0.55"/><path d="M213.0,97.3 C155.8,171.9 182.2,286.0 223.6,292.0 L276.4,292.0 C317.8,286.0 344.2,171.9 287.0,97.3 Z" fill="#0088ff" opacity="0.16"/><path d="M218.1,171.9 L241.0,171.9 L242.2,292.0 L219.3,292.0 Z" fill="#080614" stroke="#ff8800" stroke-width="1.2" opacity="0.92"/><path d="M259.0,171.9 L281.9,171.9 L280.7,292.0 L257.8,292.0 Z" fill="#080614" stroke="#ff8800" stroke-width="1.2" opacity="0.92"/><path d="M206.0,93.3 L294.0,93.3 L277.3,171.9 L222.7,171.9 Z" fill="#0a0818" stroke="#ff8800" stroke-width="1.6" opacity="0.95" filter="url(#glow-movies-evt-2)"/><line x1="250" y1="97.3" x2="250" y2="169.9" stroke="#0088ff" stroke-width="1" opacity="0.5"/><path d="M236.0,93.3 L244.0,79.3 L248.0,93.3 Z" fill="#0a0818" stroke="#ff8800" stroke-width="1.2" opacity="0.9"/><path d="M264.0,93.3 L256.0,79.3 L252.0,93.3 Z" fill="#0a0818" stroke="#ff8800" stroke-width="1.2" opacity="0.9"/><path d="M206.0,97.3 L195.4,165.9 L214.8,173.9" fill="none" stroke="#ff8800" stroke-width="9" stroke-linecap="round" opacity="0.9"/><line x1="294.0" y1="97.3" x2="294.0" y2="171.9" stroke="#ff8800" stroke-width="9" stroke-linecap="round" opacity="0.9"/><rect x="245" y="86.3" width="10" height="8" fill="#0a0818" stroke="#ff8800" stroke-width="1"/><circle cx="250" cy="67.3" r="23" fill="#0a0818" stroke="#ff8800" stroke-width="1.6" filter="url(#glow-movies-evt-2)"/><path d="M231.6,52.0 L235.6,38.0 L237.6,52.0 Z" fill="#0a0818" stroke="#ff8800" stroke-width="1"/><path d="M247.0,46.6 L252.0,33.6 L253.0,46.6 Z" fill="#0a0818" stroke="#ff8800" stroke-width="1"/><path d="M262.4,52.0 L264.4,38.0 L268.4,52.0 Z" fill="#0a0818" stroke="#ff8800" stroke-width="1"/><rect x="233.4" y="65.3" width="33.1" height="4.2" rx="2" fill="#0088ff" opacity="0.95" filter="url(#glow-movies-evt-2)"/></g>
<rect width="500" height="300" fill="url(#scan-movies-evt-2)"/>

<g stroke="#ff8800" stroke-width="2" fill="none" filter="url(#glow-movies-evt-2)" opacity="0.9">
  <path d="M10,26 L10,10 L26,10"/>
  <path d="M474,10 L490,10 L490,26"/>
  <path d="M10,274 L10,290 L26,290"/>
  <path d="M474,290 L490,290 L490,274"/>
</g>

<g font-family="monospace" font-size="11" fill="#ff8800">
  <text x="18" y="22">🎬 MOVIES</text>
</g>
<text x="486" y="22" text-anchor="end" font-family="monospace" font-size="10" fill="#0088ff" opacity="0.9">EVENT</text>

<text x="486" y="218.0" text-anchor="end" font-family="monospace" font-size="10" fill="#0088ff" opacity="0.9">LIVE</text>
<rect x="14" y="226.0" width="472" height="66.0" fill="#04020f" opacity="0.72" stroke="#ff8800" stroke-opacity="0.55" stroke-width="1"/>
<line x1="14" y1="226.0" x2="486" y2="226.0" stroke="#ff8800" stroke-width="1.2" opacity="0.9"/>

<text x="251" y="249.0" text-anchor="middle" font-family="'Courier New', monospace" font-weight="bold" font-size="16" fill="#0088ff" opacity="0.55" filter="url(#glow-movies-evt-2)"><tspan x="250" dy="0">MIDNIGHT CARTOGRAPHER</tspan><tspan x="250" dy="20">FAN SUMMIT</tspan></text>
<text x="250" y="248.0" text-anchor="middle" font-family="'Courier New', monospace" font-weight="bold" font-size="16" fill="#ffffff" filter="url(#glow-movies-evt-2)"><tspan x="250" dy="0">MIDNIGHT CARTOGRAPHER</tspan><tspan x="250" dy="20">FAN SUMMIT</tspan></text>
</svg>