<svg viewBox="0 0 500 300" xmlns="http://www.w3.org/2000/svg" role="img" aria-label="Behind the Scenes of Iron Lantern">
<defs>
  <linearGradient id="bg-movies-art-3" x1="0" y1="0" x2="0" y2="1">
    <stop offset="0%" stop-color="#05030f"/>
    <stop offset="55%" stop-color="#0d0730"/>
    <stop offset="100%" stop-color="#000000"/>
  </linearGradient>
  <radialGradient id="sun-movies-art-3" cx="50%" cy="100%" r="75%">
    <stop offset="0%" stop-color="#ff8800" stop-opacity="0.95"/>
    <stop offset="60%" stop-color="#0088ff" stop-opacity="0.35"/>
    <stop offset="100%" stop-color="#ff8800" stop-opacity="0"/>
  </radialGradient>
  <filter id="glow-movies-art-3" x="-60%" y="-60%" width="220%" height="220%">
    <feGaussianBlur stdDeviation="4.2" result="blur"/>
    <feMerge>
      <feMergeNode in="blur"/>
      <feMergeNode in="SourceGraphic"/>
    </feMerge>
  </filter>
  <pattern id="scan-movies-art-3" width="4" height="4" patternUnits="userSpaceOnUse">
    <rect width="4" height="2" fill="#ffffff" opacity="0.035"/>
  </pattern>
</defs>

<rect width="500" height="300" fill="url(#bg-movies-art-3)"/>
<g><circle cx="250" cy="184" r="95" fill="url(#sun-movies-art-3)"/><rect x="0.0" y="107.0" width="23.3" height="71" fill="#0a0820" stroke="#ff8800" stroke-opacity="0.35" stroke-width="0.6"/><rect x="15.3" y="112.0" width="4" height="3" fill="#0d0b2a" opacity="0.85"/><rect x="33.3" y="138.0" width="23.3" height="40" fill="#0a0820" stroke="#ff8800" stroke-opacity="0.35" stroke-width="0.6"/><rect x="48.7" y="143.0" width="4" height="3" fill="#ff8800" opacity="0.85"/><rect x="66.7" y="112.0" width="23.3" height="66" fill="#0a0820" stroke="#ff8800" stroke-opacity="0.35" stroke-width="0.6"/><rect x="82.0" y="117.0" width="4" height="3" fill="#0d0b2a" opacity="0.85"/><rect x="100.0" y="130.0" width="23.3" height="48" fill="#0a0820" stroke="#ff8800" stroke-opacity="0.35" stroke-width="0.6"/><rect x="115.3" y="135.0" width="4" height="3" fill="#0d0b2a" opacity="0.85"/><rect x="133.3" y="162.0" width="23.3" height="16" fill="#0a0820" stroke="#ff8800" stroke-opacity="0.35" stroke-width="0.6"/><rect x="148.7" y="167.0" width="4" height="3" fill="#ff8800" opacity="0.85"/><rect x="166.7" y="160.0" width="23.3" height="18" fill="#0a0820" stroke="#ff8800" stroke-opacity="0.35" stroke-width="0.6"/><rect x="182.0" y="165.0" width="4" height="3" fill="#0d0b2a" opacity="0.85"/><rect x="200.0" y="142.0" width="23.3" height="36" fill="#0a0820" stroke="#ff8800" stroke-opacity="0.35" stroke-width="0.6"/><rect x="215.3" y="147.0" width="4" height="3" fill="#ff8800" opacity="0.85"/><rect x="233.3" y="133.0" width="23.3" height="45" fill="#0a0820" stroke="#ff8800" stroke-opacity="0.35" stroke-width="0.6"/><rect x="248.7" y="138.0" width="4" height="3" fill="#ff8800" opacity="0.85"/><rect x="266.7" y="155.0" width="23.3" height="23" fill="#0a0820" stroke="#ff8800" stroke-opacity="0.35" stroke-width="0.6"/><rect x="282.0" y="160.0" width="4" height="3" fill="#0d0b2a" opacity="0.85"/><rect x="300.0" y="133.0" width="23.3" height="45" fill="#0a0820" stroke="#ff8800" stroke-opacity="0.35" stroke-width="0.6"/><rect x="315.3" y="138.0" width="4" height="3" fill="#0d0b2a" opacity="0.85"/><rect x="333.3" y="152.0" width="23.3" height="26" fill="#0a0820" stroke="#ff8800" stroke-opacity="0.35" stroke-width="0.6"/><rect x="348.7" y="157.0" width="4" height="3" fill="#ff8800" opacity="0.85"/><rect x="366.7" y="123.0" width="23.3" height="55" fill="#0a0820" stroke="#ff8800" stroke-opacity="0.35" stroke-width="0.6"/><rect x="382.0" y="128.0" width="4" height="3" fill="#0d0b2a" opacity="0.85"/><rect x="400.0" y="158.0" width="23.3" height="20" fill="#0a0820" stroke="#ff8800" stroke-opacity="0.35" stroke-width="0.6"/><rect x="415.3" y="163.0" width="4" height="3" fill="#ff8800" opacity="0.85"/><rect x="433.3" y="156.0" width="23.3" height="22" fill="#0a0820" stroke="#ff8800" stroke-opacity="0.35" stroke-width="0.6"/><rect x="448.7" y="161.0" width="4" height="3" fill="#0d0b2a" opacity="0.85"/><rect x="466.7" y="142.0" width="23.3" height="36" fill="#0a0820" stroke="#ff8800" stroke-opacity="0.35" stroke-width="0.6"/><rect x="482.0" y="147.0" width="4" height="3" fill="#ff8800" opacity="0.85"/><line x1="0" y1="178" x2="500" y2="178" stroke="#ff8800" stroke-width="1.4" opacity="0.8" filter="url(#glow-movies-art-3)"/><line x1="0" y1="180.3" x2="500" y2="180.3" stroke="#ff8800" stroke-width="1" opacity="0.16"/><line x1="0" y1="186.1" x2="500" y2="186.1" stroke="#ff8800" stroke-width="1" opacity="0.20"/><line x1="0" y1="194.9" x2="500" y2="194.9" stroke="#ff8800" stroke-width="1" opacity="0.24"/><line x1="0" y1="206.3" x2="500" y2="206.3" stroke="#ff8800" stroke-width="1" opacity="0.28"/><line x1="0" y1="220.4" x2="500" y2="220.4" stroke="#ff8800" stroke-width="1" opacity="0.31"/><line x1="0" y1="236.8" x2="500" y2="236.8" stroke="#ff8800" stroke-width="1" opacity="0.35"/><line x1="0" y1="255.6" x2="500" y2="255.6" stroke="#ff8800" stroke-width="1" opacity="0.39"/><line x1="0" y1="276.7" x2="500" y2="276.7" stroke="#ff8800" stroke-width="1" opacity="0.43"/><line x1="0" y1="300.0" x2="500" y2="300.0" stroke="#ff8800" stroke-width="1" opacity="0.47"/><line x1="0" y1="300" x2="250" y2="178" stroke="#ff8800" stroke-width="1" opacity="0.22"/><line x1="42" y1="300" x2="250" y2="178" stroke="#ff8800" stroke-width="1" opacity="0.22"/><line x1="84" y1="300" x2="250" y2="178" stroke="#ff8800" stroke-width="1" opacity="0.22"/><line x1="126" y1="300" x2="250" y2="178" stroke="#ff8800" stroke-width="1" opacity="0.22"/><line x1="168" y1="300" x2="250" y2="178" stroke="#ff8800" stroke-width="1" opacity="0.22"/><line x1="210" y1="300" x2="250" y2="178" stroke="#ff8800" stroke-width="1" opacity="0.22"/><line x1="252" y1="300" x2="250" y2="178" stroke="#ff8800" stroke-width="1" opacity="0.22"/><line x1="294" y1="300" x2="250" y2="178" stroke="#ff8800" stroke-width="1" opacity="0.22"/><line x1="336" y1="300" x2="250" y2="178" stroke="#ff8800" stroke-width="1" opacity="0.22"/><line x1="378" y1="300" x2="250" y2="178" stroke="#ff8800" stroke-width="1" opacity="0.22"/><line x1="420" y1="300" x2="250" y2="178" stroke="#ff8800" stroke-width="1" opacity="0.22"/><line x1="462" y1="300" x2="250" y2="178" stroke="#ff8800" stroke-width="1" opacity="0.22"/></g>
<g><ellipse cx="250" cy="184.3" rx="150" ry="130" fill="#020108" opacity="0.55"/><path d="M217.2,107.7 C160.8,178.1 184.2,286.0 226.6,292.0 L273.4,292.0 C315.8,286.0 339.2,178.1 282.8,107.7 Z" fill="#0088ff" opacity="0.16"/><path d="M223.7,178.1 L244.0,178.1 L245.2,292.0 L224.9,292.0 Z" fill="#080614" stroke="#ff8800" stroke-width="1.2" opacity="0.92"/><path d="M256.0,178.1 L276.3,178.1 L275.1,292.0 L254.8,292.0 Z" fill="#080614" stroke="#ff8800" stroke-width="1.2" opacity="0.92"/><path d="M211.0,103.7 L289.0,103.7 L274.2,178.1 L225.8,178.1 Z" fill="#0a0818" stroke="#ff8800" stroke-width="1.6" opacity="0.95" filter="url(#glow-movies-art-3)"/><line x1="250" y1="107.7" x2="250" y2="176.1" stroke="#0088ff" stroke-width="1" opacity="0.5"/><path d="M236.0,103.7 L244.0,89.7 L248.0,103.7 Z" fill="#0a0818" stroke="#ff8800" stroke-width="1.2" opacity="0.9"/><path d="M264.0,103.7 L256.0,89.7 L252.0,103.7 Z" fill="#0a0818" stroke="#ff8800" stroke-width="1.2" opacity="0.9"/><line x1="211.0" y1="107.7" x2="214.1" y2="186.1" stroke="#ff8800" stroke-width="9" stroke-linecap="round" opacity="0.9"/><line x1="289.0" y1="107.7" x2="285.9" y2="186.1" stroke="#ff8800" stroke-width="9" stroke-linecap="round" opacity="0.9"/><rect x="245" y="96.7" width="10" height="8" fill="#0a0818" stroke="#ff8800" stroke-width="1"/><circle cx="250" cy="76.7" r="24" fill="#0a0818" stroke="#ff8800" stroke-width="1.6" filter="url(#glow-movies-art-3)"/><path d="M228.0,63.5 L230.0,53.5 L234.0,63.5 Z" fill="#0a0818" stroke="#ff8800" stroke-width="1"/><path d="M234.5,58.2 L240.5,42.2 L240.5,58.2 Z" fill="#0a0818" stroke="#ff8800" stroke-width="1"/><path d="M242.6,55.4 L240.6,37.4 L248.6,55.4 Z" fill="#0a0818" stroke="#ff8800" stroke-width="1"/><path d="M251.4,55.4 L255.4,42.4 L257.4,55.4 Z" fill="#0a0818" stroke="#ff8800" stroke-width="1"/><path d="M259.5,58.2 L265.5,45.2 L265.5,58.2 Z" fill="#0a0818" stroke="#ff8800" stroke-width="1"/><path d="M266.0,63.5 L267.0,50.5 L272.0,63.5 Z" fill="#0a0818" stroke="#ff8800" stroke-width="1"/><rect x="232.7" y="74.7" width="34.6" height="4.2" rx="2" fill="#0088ff" opacity="0.95" filter="url(#glow-movies-art-3)"/></g>
<rect width="500" height="300" fill="url(#scan-movies-art-3)"/>

<g stroke="#ff8800" stroke-width="2" fill="none" filter="url(#glow-movies-art-3)" opacity="0.9">
  <path d="M10,26 L10,10 L26,10"/>
  <path d="M474,10 L490,10 L490,26"/>
  <path d="M10,274 L10,290 L26,290"/>
  <path d="M474,290 L490,290 L490,274"/>
</g>

<g font-family="monospace" font-size="11" fill="#ff8800">
  <text x="18" y="22">🎬 MOVIES</text>
</g>
<text x="486" y="22" text-anchor="end" font-family="monospace" font-size="10" fill="#0088ff" opacity="0.9">ARTICLE</text>


<rect x="14" y="226.0" width="472" height="66.0" fill="#04020f" opacity="0.72" stroke="#ff8800" stroke-opacity="0.55" stroke-width="1"/>
<line x1="14" y1="226.0" x2="486" y2="226.0" stroke="#ff8800" stroke-width="1.2" opacity="0.9"/>

<text x="251" y="249.0" text-anchor="middle" font-family="'Courier New', monospace" font-weight="bold" font-size="16" fill="#0088ff" opacity="0.55" filter="url(#glow-movies-art-3)"><tspan x="250" dy="0">BEHIND THE SCENES OF</tspan><tspan x="250" dy="20">IRON LANTERN</tspan></text>
<text x="250" y="248.0" text-anchor="middle" font-family="'Courier New', monospace" font-weight="bold" font-size="16" fill="#ffffff" filter="url(#glow-movies-art-3)"><tspan x="250" dy="0">BEHIND THE SCENES OF</tspan><tspan x="250" dy="20">IRON LANTERN</tspan></text>
</svg>