<svg viewBox="0 0 500 300" xmlns="http://www.w3.org/2000/svg" role="img" aria-label="Yuna Kade">
<defs>
  <linearGradient id="bg-movies-chr-4" x1="0" y1="0" x2="0" y2="1">
    <stop offset="0%" stop-color="#05030f"/>
    <stop offset="55%" stop-color="#0d0730"/>
    <stop offset="100%" stop-color="#000000"/>
  </linearGradient>
  <radialGradient id="sun-movies-chr-4" cx="50%" cy="100%" r="75%">
    <stop offset="0%" stop-color="#ff8800" stop-opacity="0.95"/>
    <stop offset="60%" stop-color="#0088ff" stop-opacity="0.35"/>
    <stop offset="100%" stop-color="#ff8800" stop-opacity="0"/>
  </radialGradient>
  <filter id="glow-movies-chr-4" x="-60%" y="-60%" width="220%" height="220%">
    <feGaussianBlur stdDeviation="4.2" result="blur"/>
    <feMerge>
      <feMergeNode in="blur"/>
      <feMergeNode in="SourceGraphic"/>
    </feMerge>
  </filter>
  <pattern id="scan-movies-chr-4" width="4" height="4" patternUnits="userSpaceOnUse">
    <rect width="4" height="2" fill="#ffffff" opacity="0.035"/>
  </pattern>
</defs>

<rect width="500" height="300" fill="url(#bg-movies-chr-4)"/>
<g><rect width="500" height="300" fill="#ff8800" opacity="0.03"/><path d="M324,44 L30,44 L30,264 L30,264" stroke="#ff8800" stroke-width="1.4" fill="none" opacity="0.55" filter="url(#glow-movies-chr-4)"/><path d="M30,264 L184,264 L184,114 L184,114" stroke="#ff8800" stroke-width="1.4" fill="none" opacity="0.55" filter="url(#glow-movies-chr-4)"/><path d="M184,114 L105,114 L105,108 L105,108" stroke="#ff8800" stroke-width="1.4" fill="none" opacity="0.55" filter="url(#glow-movies-chr-4)"/><path d="M105,108 L105,108 L105,180 L333,180" stroke="#ff8800" stroke-width="1.4" fill="none" opacity="0.55" filter="url(#glow-movies-chr-4)"/><path d="M333,180 L333,180 L333,174 L331,174" stroke="#ff8800" stroke-width="1.4" fill="none" opacity="0.55" filter="url(#glow-movies-chr-4)"/><path d="M331,174 L331,174 L331,52 L381,52" stroke="#ff8800" stroke-width="1.4" fill="none" opacity="0.55" filter="url(#glow-movies-chr-4)"/><path d="M381,52 L381,52 L381,54 L76,54" stroke="#ff8800" stroke-width="1.4" fill="none" opacity="0.55" filter="url(#glow-movies-chr-4)"/><path d="M76,54 L147,54 L147,146 L147,146" stroke="#ff8800" stroke-width="1.4" fill="none" opacity="0.55" filter="url(#glow-movies-chr-4)"/><circle cx="324" cy="44" r="5" fill="#0088ff" opacity="0.9" filter="url(#glow-movies-chr-4)"/><circle cx="30" cy="264" r="3" fill="#0088ff" opacity="0.9" filter="url(#glow-movies-chr-4)"/><circle cx="184" cy="114" r="3" fill="#0088ff" opacity="0.9" filter="url(#glow-movies-chr-4)"/><circle cx="105" cy="108" r="3" fill="#0088ff" opacity="0.9" filter="url(#glow-movies-chr-4)"/><circle cx="333" cy="180" r="4" fill="#0088ff" opacity="0.9" filter="url(#glow-movies-chr-4)"/><circle cx="331" cy="174" r="5" fill="#0088ff" opacity="0.9" filter="url(#glow-movies-chr-4)"/><circle cx="381" cy="52" r="4" fill="#0088ff" opacity="0.9" filter="url(#glow-movies-chr-4)"/><circle cx="76" cy="54" r="3" fill="#0088ff" opacity="0.9" filter="url(#glow-movies-chr-4)"/><circle cx="147" cy="146" r="4" fill="#0088ff" opacity="0.9" filter="url(#glow-movies-chr-4)"/></g>
<g><ellipse cx="250" cy="179.8" rx="150" ry="130" fill="#020108" opacity="0.55"/><path d="M220.3,170.8 L244.0,170.8 L242.8,292.0 L219.1,292.0 Z" fill="#080614" stroke="#ff8800" stroke-width="1.2" opacity="0.92"/><path d="M256.0,170.8 L279.7,170.8 L280.9,292.0 L257.2,292.0 Z" fill="#080614" stroke="#ff8800" stroke-width="1.2" opacity="0.92"/><path d="M204.5,91.6 L295.5,91.6 L278.2,170.8 L221.8,170.8 Z" fill="#0a0818" stroke="#ff8800" stroke-width="1.6" opacity="0.95" filter="url(#glow-movies-chr-4)"/><line x1="250" y1="95.6" x2="250" y2="168.8" stroke="#0088ff" stroke-width="1" opacity="0.5"/><path d="M236.0,91.6 L244.0,77.6 L248.0,91.6 Z" fill="#0a0818" stroke="#ff8800" stroke-width="1.2" opacity="0.9"/><path d="M264.0,91.6 L256.0,77.6 L252.0,91.6 Z" fill="#0a0818" stroke="#ff8800" stroke-width="1.2" opacity="0.9"/><path d="M204.5,95.6 L193.6,164.8 L213.6,172.8" fill="none" stroke="#ff8800" stroke-width="9" stroke-linecap="round" opacity="0.9"/><line x1="295.5" y1="95.6" x2="295.5" y2="170.8" stroke="#ff8800" stroke-width="9" stroke-linecap="round" opacity="0.9"/><rect x="245" y="84.6" width="10" height="8" fill="#0a0818" stroke="#ff8800" stroke-width="1"/><circle cx="250" cy="67.6" r="21" fill="#0a0818" stroke="#ff8800" stroke-width="1.6" filter="url(#glow-movies-chr-4)"/><path d="M230.3,56.1 L236.3,45.1 L236.3,56.1 Z" fill="#0a0818" stroke="#ff8800" stroke-width="1"/><path d="M236.0,51.5 L239.0,34.5 L242.0,51.5 Z" fill="#0a0818" stroke="#ff8800" stroke-width="1"/><path d="M243.2,49.0 L242.2,32.0 L249.2,49.0 Z" fill="#0a0818" stroke="#ff8800" stroke-width="1"/><path d="M250.8,49.0 L255.8,37.0 L256.8,49.0 Z" fill="#0a0818" stroke="#ff8800" stroke-width="1"/><path d="M258.0,51.5 L263.0,32.5 L264.0,51.5 Z" fill="#0a0818" stroke="#ff8800" stroke-width="1"/><path d="M263.7,56.1 L263.7,41.1 L269.7,56.1 Z" fill="#0a0818" stroke="#ff8800" stroke-width="1"/><rect x="234.9" y="65.6" width="30.2" height="4.2" rx="2" fill="#0088ff" opacity="0.95" filter="url(#glow-movies-chr-4)"/></g>
<rect width="500" height="300" fill="url(#scan-movies-chr-4)"/>

<g stroke="#ff8800" stroke-width="2" fill="none" filter="url(#glow-movies-chr-4)" opacity="0.9">
  <path d="M10,26 L10,10 L26,10"/>
  <path d="M474,10 L490,10 L490,26"/>
  <path d="M10,274 L10,290 L26,290"/>
  <path d="M474,290 L490,290 L490,274"/>
</g>

<g font-family="monospace" font-size="11" fill="#ff8800">
  <text x="18" y="22">🎬 MOVIES</text>
</g>
<text x="486" y="22" text-anchor="end" font-family="monospace" font-size="10" fill="#0088ff" opacity="0.9">CHARACTER</text>


<rect x="14" y="246.0" width="472" height="46.0" fill="#04020f" opacity="0.72" stroke="#ff8800" stroke-opacity="0.55" stroke-width="1"/>
<line x1="14" y1="246.0" x2="486" y2="246.0" stroke="#ff8800" stroke-width="1.2" opacity="0.9"/>

<text x="251" y="269.0" text-anchor="middle" font-family="'Courier New', monospace" font-weight="bold" font-size="16" fill="#0088ff" opacity="0.55" filter="url(#glow-movies-chr-4)"><tspan x="250" dy="0">YUNA KADE</tspan></text>
<text x="250" y="268.0" text-anchor="middle" font-family="'Courier New', monospace" font-weight="bold" font-size="16" fill="#ffffff" filter="url(#glow-movies-chr-4)"><tspan x="250" dy="0">YUNA KADE</tspan></text>
</svg>