<svg viewBox="0 0 500 300" xmlns="http://www.w3.org/2000/svg" role="img" aria-label="The Glass Horizon T-Shirt">
<defs>
  <linearGradient id="bg-movies-mrc-1" x1="0" y1="0" x2="0" y2="1">
    <stop offset="0%" stop-color="#05030f"/>
    <stop offset="55%" stop-color="#0d0730"/>
    <stop offset="100%" stop-color="#000000"/>
  </linearGradient>
  <radialGradient id="sun-movies-mrc-1" cx="50%" cy="100%" r="75%">
    <stop offset="0%" stop-color="#ff8800" stop-opacity="0.95"/>
    <stop offset="60%" stop-color="#0088ff" stop-opacity="0.35"/>
    <stop offset="100%" stop-color="#ff8800" stop-opacity="0"/>
  </radialGradient>
  <filter id="glow-movies-mrc-1" x="-60%" y="-60%" width="220%" height="220%">
    <feGaussianBlur stdDeviation="4.2" result="blur"/>
    <feMerge>
      <feMergeNode in="blur"/>
      <feMergeNode in="SourceGraphic"/>
    </feMerge>
  </filter>
  <pattern id="scan-movies-mrc-1" width="4" height="4" patternUnits="userSpaceOnUse">
    <rect width="4" height="2" fill="#ffffff" opacity="0.035"/>
  </pattern>
</defs>

<rect width="500" height="300" fill="url(#bg-movies-mrc-1)"/>
<g><circle cx="250" cy="184" r="94" fill="url(#sun-movies-mrc-1)"/><rect x="0.0" y="108.0" width="21.9" height="70" fill="#0a0820" stroke="#ff8800" stroke-opacity="0.35" stroke-width="0.6"/><rect x="13.9" y="113.0" width="4" height="3" fill="#0d0b2a" opacity="0.85"/><rect x="31.2" y="128.0" width="21.9" height="50" fill="#0a0820" stroke="#ff8800" stroke-opacity="0.35" stroke-width="0.6"/><rect x="45.1" y="133.0" width="4" height="3" fill="#ff8800" opacity="0.85"/><rect x="62.5" y="153.0" width="21.9" height="25" fill="#0a0820" stroke="#ff8800" stroke-opacity="0.35" stroke-width="0.6"/><rect x="76.4" y="158.0" width="4" height="3" fill="#0d0b2a" opacity="0.85"/><rect x="93.8" y="144.0" width="21.9" height="34" fill="#0a0820" stroke="#ff8800" stroke-opacity="0.35" stroke-width="0.6"/><rect x="107.6" y="149.0" width="4" height="3" fill="#0d0b2a" opacity="0.85"/><rect x="125.0" y="140.0" width="21.9" height="38" fill="#0a0820" stroke="#ff8800" stroke-opacity="0.35" stroke-width="0.6"/><rect x="138.9" y="145.0" width="4" height="3" fill="#0d0b2a" opacity="0.85"/><rect x="156.2" y="148.0" width="21.9" height="30" fill="#0a0820" stroke="#ff8800" stroke-opacity="0.35" stroke-width="0.6"/><rect x="170.1" y="153.0" width="4" height="3" fill="#ff8800" opacity="0.85"/><rect x="187.5" y="144.0" width="21.9" height="34" fill="#0a0820" stroke="#ff8800" stroke-opacity="0.35" stroke-width="0.6"/><rect x="201.4" y="149.0" width="4" height="3" fill="#0d0b2a" opacity="0.85"/><rect x="218.8" y="157.0" width="21.9" height="21" fill="#0a0820" stroke="#ff8800" stroke-opacity="0.35" stroke-width="0.6"/><rect x="232.6" y="162.0" width="4" height="3" fill="#0d0b2a" opacity="0.85"/><rect x="250.0" y="139.0" width="21.9" height="39" fill="#0a0820" stroke="#ff8800" stroke-opacity="0.35" stroke-width="0.6"/><rect x="263.9" y="144.0" width="4" height="3" fill="#0d0b2a" opacity="0.85"/><rect x="281.2" y="123.0" width="21.9" height="55" fill="#0a0820" stroke="#ff8800" stroke-opacity="0.35" stroke-width="0.6"/><rect x="295.1" y="128.0" width="4" height="3" fill="#0d0b2a" opacity="0.85"/><rect x="312.5" y="124.0" width="21.9" height="54" fill="#0a0820" stroke="#ff8800" stroke-opacity="0.35" stroke-width="0.6"/><rect x="326.4" y="129.0" width="4" height="3" fill="#ff8800" opacity="0.85"/><rect x="343.8" y="151.0" width="21.9" height="27" fill="#0a0820" stroke="#ff8800" stroke-opacity="0.35" stroke-width="0.6"/><rect x="357.6" y="156.0" width="4" height="3" fill="#0d0b2a" opacity="0.85"/><rect x="375.0" y="129.0" width="21.9" height="49" fill="#0a0820" stroke="#ff8800" stroke-opacity="0.35" stroke-width="0.6"/><rect x="388.9" y="134.0" width="4" height="3" fill="#ff8800" opacity="0.85"/><rect x="406.2" y="153.0" width="21.9" height="25" fill="#0a0820" stroke="#ff8800" stroke-opacity="0.35" stroke-width="0.6"/><rect x="420.1" y="158.0" width="4" height="3" fill="#0d0b2a" opacity="0.85"/><rect x="437.5" y="162.0" width="21.9" height="16" fill="#0a0820" stroke="#ff8800" stroke-opacity="0.35" stroke-width="0.6"/><rect x="451.4" y="167.0" width="4" height="3" fill="#0d0b2a" opacity="0.85"/><rect x="468.8" y="146.0" width="21.9" height="32" fill="#0a0820" stroke="#ff8800" stroke-opacity="0.35" stroke-width="0.6"/><rect x="482.6" y="151.0" width="4" height="3" fill="#0d0b2a" opacity="0.85"/><line x1="0" y1="178" x2="500" y2="178" stroke="#ff8800" stroke-width="1.4" opacity="0.8" filter="url(#glow-movies-mrc-1)"/><line x1="0" y1="180.3" x2="500" y2="180.3" stroke="#ff8800" stroke-width="1" opacity="0.16"/><line x1="0" y1="186.1" x2="500" y2="186.1" stroke="#ff8800" stroke-width="1" opacity="0.20"/><line x1="0" y1="194.9" x2="500" y2="194.9" stroke="#ff8800" stroke-width="1" opacity="0.24"/><line x1="0" y1="206.3" x2="500" y2="206.3" stroke="#ff8800" stroke-width="1" opacity="0.28"/><line x1="0" y1="220.4" x2="500" y2="220.4" stroke="#ff8800" stroke-width="1" opacity="0.31"/><line x1="0" y1="236.8" x2="500" y2="236.8" stroke="#ff8800" stroke-width="1" opacity="0.35"/><line x1="0" y1="255.6" x2="500" y2="255.6" stroke="#ff8800" stroke-width="1" opacity="0.39"/><line x1="0" y1="276.7" x2="500" y2="276.7" stroke="#ff8800" stroke-width="1" opacity="0.43"/><line x1="0" y1="300.0" x2="500" y2="300.0" stroke="#ff8800" stroke-width="1" opacity="0.47"/><line x1="0" y1="300" x2="250" y2="178" stroke="#ff8800" stroke-width="1" opacity="0.22"/><line x1="42" y1="300" x2="250" y2="178" stroke="#ff8800" stroke-width="1" opacity="0.22"/><line x1="84" y1="300" x2="250" y2="178" stroke="#ff8800" stroke-width="1" opacity="0.22"/><line x1="126" y1="300" x2="250" y2="178" stroke="#ff8800" stroke-width="1" opacity="0.22"/><line x1="168" y1="300" x2="250" y2="178" stroke="#ff8800" stroke-width="1" opacity="0.22"/><line x1="210" y1="300" x2="250" y2="178" stroke="#ff8800" stroke-width="1" opacity="0.22"/><line x1="252" y1="300" x2="250" y2="178" stroke="#ff8800" stroke-width="1" opacity="0.22"/><line x1="294" y1="300" x2="250" y2="178" stroke="#ff8800" stroke-width="1" opacity="0.22"/><line x1="336" y1="300" x2="250" y2="178" stroke="#ff8800" stroke-width="1" opacity="0.22"/><line x1="378" y1="300" x2="250" y2="178" stroke="#ff8800" stroke-width="1" opacity="0.22"/><line x1="420" y1="300" x2="250" y2="178" stroke="#ff8800" stroke-width="1" opacity="0.22"/><line x1="462" y1="300" x2="250" y2="178" stroke="#ff8800" stroke-width="1" opacity="0.22"/></g>
<g><ellipse cx="250" cy="193.0" rx="150" ry="130" fill="#020108" opacity="0.55"/><path d="M208.8,124.0 C136.8,188.0 166.2,286.0 220.6,292.0 L279.4,292.0 C333.8,286.0 363.2,188.0 291.2,124.0 Z" fill="#0088ff" opacity="0.16"/><path d="M216.5,188.0 L242.0,188.0 L242.6,292.0 L217.1,292.0 Z" fill="#080614" stroke="#ff8800" stroke-width="1.2" opacity="0.92"/><path d="M258.0,188.0 L283.5,188.0 L282.9,292.0 L257.4,292.0 Z" fill="#080614" stroke="#ff8800" stroke-width="1.2" opacity="0.92"/><path d="M201.0,120.0 L299.0,120.0 L280.4,188.0 L219.6,188.0 Z" fill="#0a0818" stroke="#ff8800" stroke-width="1.6" opacity="0.95" filter="url(#glow-movies-mrc-1)"/><line x1="250" y1="124.0" x2="250" y2="186.0" stroke="#0088ff" stroke-width="1" opacity="0.5"/><path d="M236.0,120.0 L244.0,106.0 L248.0,120.0 Z" fill="#0a0818" stroke="#ff8800" stroke-width="1.2" opacity="0.9"/><path d="M264.0,120.0 L256.0,106.0 L252.0,120.0 Z" fill="#0a0818" stroke="#ff8800" stroke-width="1.2" opacity="0.9"/><path d="M201.0,124.0 L189.2,182.0 L210.8,190.0" fill="none" stroke="#ff8800" stroke-width="9" stroke-linecap="round" opacity="0.9"/><line x1="299.0" y1="124.0" x2="299.0" y2="188.0" stroke="#ff8800" stroke-width="9" stroke-linecap="round" opacity="0.9"/><rect x="245" y="113.0" width="10" height="8" fill="#0a0818" stroke="#ff8800" stroke-width="1"/><circle cx="250" cy="94.0" r="23" fill="#0a0818" stroke="#ff8800" stroke-width="1.6" filter="url(#glow-movies-mrc-1)"/><path d="M228.8,81.4 L231.8,65.4 L234.8,81.4 Z" fill="#0a0818" stroke="#ff8800" stroke-width="1"/><path d="M235.0,76.4 L235.0,66.4 L241.0,76.4 Z" fill="#0a0818" stroke="#ff8800" stroke-width="1"/><path d="M242.8,73.6 L246.8,55.6 L248.8,73.6 Z" fill="#0a0818" stroke="#ff8800" stroke-width="1"/><path d="M251.2,73.6 L249.2,60.6 L257.2,73.6 Z" fill="#0a0818" stroke="#ff8800" stroke-width="1"/><path d="M259.0,76.4 L265.0,61.4 L265.0,76.4 Z" fill="#0a0818" stroke="#ff8800" stroke-width="1"/><path d="M265.2,81.4 L266.2,66.4 L271.2,81.4 Z" fill="#0a0818" stroke="#ff8800" stroke-width="1"/><rect x="233.4" y="92.0" width="33.1" height="4.2" rx="2" fill="#0088ff" opacity="0.95" filter="url(#glow-movies-mrc-1)"/></g>
<rect width="500" height="300" fill="url(#scan-movies-mrc-1)"/>

<g stroke="#ff8800" stroke-width="2" fill="none" filter="url(#glow-movies-mrc-1)" opacity="0.9">
  <path d="M10,26 L10,10 L26,10"/>
  <path d="M474,10 L490,10 L490,26"/>
  <path d="M10,274 L10,290 L26,290"/>
  <path d="M474,290 L490,290 L490,274"/>
</g>

<g font-family="monospace" font-size="11" fill="#ff8800">
  <text x="18" y="22">🎬 MOVIES</text>
</g>
<text x="486" y="22" text-anchor="end" font-family="monospace" font-size="10" fill="#0088ff" opacity="0.9">MERCH</text>


<rect x="14" y="226.0" width="472" height="66.0" fill="#04020f" opacity="0.72" stroke="#ff8800" stroke-opacity="0.55" stroke-width="1"/>
<line x1="14" y1="226.0" x2="486" y2="226.0" stroke="#ff8800" stroke-width="1.2" opacity="0.9"/>

<text x="251" y="249.0" text-anchor="middle" font-family="'Courier New', monospace" font-weight="bold" font-size="16" fill="#0088ff" opacity="0.55" filter="url(#glow-movies-mrc-1)"><tspan x="250" dy="0">THE GLASS HORIZON</tspan><tspan x="250" dy="20">T-SHIRT</tspan></text>
<text x="250" y="248.0" text-anchor="middle" font-family="'Courier New', monospace" font-weight="bold" font-size="16" fill="#ffffff" filter="url(#glow-movies-mrc-1)"><tspan x="250" dy="0">THE GLASS HORIZON</tspan><tspan x="250" dy="20">T-SHIRT</tspan></text>
</svg>