<svg viewBox="0 0 500 300" xmlns="http://www.w3.org/2000/svg" role="img" aria-label="Kaito Voss">
<defs>
  <linearGradient id="bg-tvshows-chr-1" x1="0" y1="0" x2="0" y2="1">
    <stop offset="0%" stop-color="#05030f"/>
    <stop offset="55%" stop-color="#0d0730"/>
    <stop offset="100%" stop-color="#000000"/>
  </linearGradient>
  <radialGradient id="sun-tvshows-chr-1" cx="50%" cy="100%" r="75%">
    <stop offset="0%" stop-color="#00aaff" stop-opacity="0.95"/>
    <stop offset="60%" stop-color="#b026ff" stop-opacity="0.35"/>
    <stop offset="100%" stop-color="#00aaff" stop-opacity="0"/>
  </radialGradient>
  <filter id="glow-tvshows-chr-1" x="-60%" y="-60%" width="220%" height="220%">
    <feGaussianBlur stdDeviation="4.2" result="blur"/>
    <feMerge>
      <feMergeNode in="blur"/>
      <feMergeNode in="SourceGraphic"/>
    </feMerge>
  </filter>
  <pattern id="scan-tvshows-chr-1" width="4" height="4" patternUnits="userSpaceOnUse">
    <rect width="4" height="2" fill="#ffffff" opacity="0.035"/>
  </pattern>
</defs>

<rect width="500" height="300" fill="url(#bg-tvshows-chr-1)"/>
<g><rect x="1.0" y="282.0" width="16.2" height="18" fill="#00aaff" opacity="0.65" filter="url(#glow-tvshows-chr-1)"/><rect x="1.0" y="278.0" width="16.2" height="2" fill="#ffffff" opacity="0.5"/><rect x="20.2" y="250.0" width="16.2" height="50" fill="#b026ff" opacity="0.65" filter="url(#glow-tvshows-chr-1)"/><rect x="20.2" y="246.0" width="16.2" height="2" fill="#ffffff" opacity="0.5"/><rect x="39.5" y="257.0" width="16.2" height="43" fill="#00aaff" opacity="0.65" filter="url(#glow-tvshows-chr-1)"/><rect x="39.5" y="253.0" width="16.2" height="2" fill="#ffffff" opacity="0.5"/><rect x="58.7" y="288.0" width="16.2" height="12" fill="#b026ff" opacity="0.65" filter="url(#glow-tvshows-chr-1)"/><rect x="58.7" y="284.0" width="16.2" height="2" fill="#ffffff" opacity="0.5"/><rect x="77.9" y="227.0" width="16.2" height="73" fill="#00aaff" opacity="0.65" filter="url(#glow-tvshows-chr-1)"/><rect x="77.9" y="223.0" width="16.2" height="2" fill="#ffffff" opacity="0.5"/><rect x="97.2" y="193.0" width="16.2" height="107" fill="#b026ff" opacity="0.65" filter="url(#glow-tvshows-chr-1)"/><rect x="97.2" y="189.0" width="16.2" height="2" fill="#ffffff" opacity="0.5"/><rect x="116.4" y="287.0" width="16.2" height="13" fill="#00aaff" opacity="0.65" filter="url(#glow-tvshows-chr-1)"/><rect x="116.4" y="283.0" width="16.2" height="2" fill="#ffffff" opacity="0.5"/><rect x="135.6" y="186.0" width="16.2" height="114" fill="#b026ff" opacity="0.65" filter="url(#glow-tvshows-chr-1)"/><rect x="135.6" y="182.0" width="16.2" height="2" fill="#ffffff" opacity="0.5"/><rect x="154.8" y="282.0" width="16.2" height="18" fill="#00aaff" opacity="0.65" filter="url(#glow-tvshows-chr-1)"/><rect x="154.8" y="278.0" width="16.2" height="2" fill="#ffffff" opacity="0.5"/><rect x="174.1" y="167.0" width="16.2" height="133" fill="#b026ff" opacity="0.65" filter="url(#glow-tvshows-chr-1)"/><rect x="174.1" y="163.0" width="16.2" height="2" fill="#ffffff" opacity="0.5"/><rect x="193.3" y="279.0" width="16.2" height="21" fill="#00aaff" opacity="0.65" filter="url(#glow-tvshows-chr-1)"/><rect x="193.3" y="275.0" width="16.2" height="2" fill="#ffffff" opacity="0.5"/><rect x="212.5" y="168.0" width="16.2" height="132" fill="#b026ff" opacity="0.65" filter="url(#glow-tvshows-chr-1)"/><rect x="212.5" y="164.0" width="16.2" height="2" fill="#ffffff" opacity="0.5"/><rect x="231.8" y="238.0" width="16.2" height="62" fill="#00aaff" opacity="0.65" filter="url(#glow-tvshows-chr-1)"/><rect x="231.8" y="234.0" width="16.2" height="2" fill="#ffffff" opacity="0.5"/><rect x="251.0" y="178.0" width="16.2" height="122" fill="#b026ff" opacity="0.65" filter="url(#glow-tvshows-chr-1)"/><rect x="251.0" y="174.0" width="16.2" height="2" fill="#ffffff" opacity="0.5"/><rect x="270.2" y="255.0" width="16.2" height="45" fill="#00aaff" opacity="0.65" filter="url(#glow-tvshows-chr-1)"/><rect x="270.2" y="251.0" width="16.2" height="2" fill="#ffffff" opacity="0.5"/><rect x="289.5" y="196.0" width="16.2" height="104" fill="#b026ff" opacity="0.65" filter="url(#glow-tvshows-chr-1)"/><rect x="289.5" y="192.0" width="16.2" height="2" fill="#ffffff" opacity="0.5"/><rect x="308.7" y="282.0" width="16.2" height="18" fill="#00aaff" opacity="0.65" filter="url(#glow-tvshows-chr-1)"/><rect x="308.7" y="278.0" width="16.2" height="2" fill="#ffffff" opacity="0.5"/><rect x="327.9" y="250.0" width="16.2" height="50" fill="#b026ff" opacity="0.65" filter="url(#glow-tvshows-chr-1)"/><rect x="327.9" y="246.0" width="16.2" height="2" fill="#ffffff" opacity="0.5"/><rect x="347.2" y="257.0" width="16.2" height="43" fill="#00aaff" opacity="0.65" filter="url(#glow-tvshows-chr-1)"/><rect x="347.2" y="253.0" width="16.2" height="2" fill="#ffffff" opacity="0.5"/><rect x="366.4" y="288.0" width="16.2" height="12" fill="#b026ff" opacity="0.65" filter="url(#glow-tvshows-chr-1)"/><rect x="366.4" y="284.0" width="16.2" height="2" fill="#ffffff" opacity="0.5"/><rect x="385.6" y="227.0" width="16.2" height="73" fill="#00aaff" opacity="0.65" filter="url(#glow-tvshows-chr-1)"/><rect x="385.6" y="223.0" width="16.2" height="2" fill="#ffffff" opacity="0.5"/><rect x="404.8" y="193.0" width="16.2" height="107" fill="#b026ff" opacity="0.65" filter="url(#glow-tvshows-chr-1)"/><rect x="404.8" y="189.0" width="16.2" height="2" fill="#ffffff" opacity="0.5"/><rect x="424.1" y="287.0" width="16.2" height="13" fill="#00aaff" opacity="0.65" filter="url(#glow-tvshows-chr-1)"/><rect x="424.1" y="283.0" width="16.2" height="2" fill="#ffffff" opacity="0.5"/><rect x="443.3" y="186.0" width="16.2" height="114" fill="#b026ff" opacity="0.65" filter="url(#glow-tvshows-chr-1)"/><rect x="443.3" y="182.0" width="16.2" height="2" fill="#ffffff" opacity="0.5"/><rect x="462.5" y="282.0" width="16.2" height="18" fill="#00aaff" opacity="0.65" filter="url(#glow-tvshows-chr-1)"/><rect x="462.5" y="278.0" width="16.2" height="2" fill="#ffffff" opacity="0.5"/><rect x="481.8" y="167.0" width="16.2" height="133" fill="#b026ff" opacity="0.65" filter="url(#glow-tvshows-chr-1)"/><rect x="481.8" y="163.0" width="16.2" height="2" fill="#ffffff" opacity="0.5"/><line x1="0" y1="299" x2="500" y2="299" stroke="#00aaff" stroke-width="1.5" opacity="0.8"/></g>
<g><ellipse cx="250" cy="181.0" rx="150" ry="130" fill="#020108" opacity="0.55"/><path d="M217.8,173.4 L243.0,173.4 L242.1,292.0 L216.9,292.0 Z" fill="#080614" stroke="#00aaff" stroke-width="1.2" opacity="0.92"/><path d="M257.0,173.4 L282.2,173.4 L283.1,292.0 L257.9,292.0 Z" fill="#080614" stroke="#00aaff" stroke-width="1.2" opacity="0.92"/><path d="M201.5,95.9 L298.5,95.9 L280.1,173.4 L219.9,173.4 Z" fill="#0a0818" stroke="#00aaff" stroke-width="1.6" opacity="0.95" filter="url(#glow-tvshows-chr-1)"/><line x1="250" y1="99.9" x2="250" y2="171.4" stroke="#b026ff" stroke-width="1" opacity="0.5"/><path d="M236.0,95.9 L244.0,81.9 L248.0,95.9 Z" fill="#0a0818" stroke="#00aaff" stroke-width="1.2" opacity="0.9"/><path d="M264.0,95.9 L256.0,81.9 L252.0,95.9 Z" fill="#0a0818" stroke="#00aaff" stroke-width="1.2" opacity="0.9"/><line x1="201.5" y1="99.9" x2="205.4" y2="181.4" stroke="#00aaff" stroke-width="9" stroke-linecap="round" opacity="0.9"/><line x1="298.5" y1="99.9" x2="294.6" y2="181.4" stroke="#00aaff" stroke-width="9" stroke-linecap="round" opacity="0.9"/><rect x="245" y="88.9" width="10" height="8" fill="#0a0818" stroke="#00aaff" stroke-width="1"/><circle cx="250" cy="69.9" r="23" fill="#0a0818" stroke="#00aaff" stroke-width="1.6" filter="url(#glow-tvshows-chr-1)"/><path d="M229.3,56.7 L230.3,43.7 L235.3,56.7 Z" fill="#0a0818" stroke="#00aaff" stroke-width="1"/><path d="M237.2,51.2 L237.2,34.2 L243.2,51.2 Z" fill="#0a0818" stroke="#00aaff" stroke-width="1"/><path d="M247.0,49.2 L248.0,36.2 L253.0,49.2 Z" fill="#0a0818" stroke="#00aaff" stroke-width="1"/><path d="M256.8,51.2 L261.8,37.2 L262.8,51.2 Z" fill="#0a0818" stroke="#00aaff" stroke-width="1"/><path d="M264.7,56.7 L265.7,38.7 L270.7,56.7 Z" fill="#0a0818" stroke="#00aaff" stroke-width="1"/><rect x="233.4" y="67.9" width="33.1" height="4.2" rx="2" fill="#b026ff" opacity="0.95" filter="url(#glow-tvshows-chr-1)"/></g>
<rect width="500" height="300" fill="url(#scan-tvshows-chr-1)"/>

<g stroke="#00aaff" stroke-width="2" fill="none" filter="url(#glow-tvshows-chr-1)" opacity="0.9">
  <path d="M10,26 L10,10 L26,10"/>
  <path d="M474,10 L490,10 L490,26"/>
  <path d="M10,274 L10,290 L26,290"/>
  <path d="M474,290 L490,290 L490,274"/>
</g>

<g font-family="monospace" font-size="11" fill="#00aaff">
  <text x="18" y="22">📺 TV SHOWS</text>
</g>
<text x="486" y="22" text-anchor="end" font-family="monospace" font-size="10" fill="#b026ff" opacity="0.9">CHARACTER</text>


<rect x="14" y="246.0" width="472" height="46.0" fill="#04020f" opacity="0.72" stroke="#00aaff" stroke-opacity="0.55" stroke-width="1"/>
<line x1="14" y1="246.0" x2="486" y2="246.0" stroke="#00aaff" stroke-width="1.2" opacity="0.9"/>

<text x="251" y="269.0" text-anchor="middle" font-family="'Courier New', monospace" font-weight="bold" font-size="16" fill="#b026ff" opacity="0.55" filter="url(#glow-tvshows-chr-1)"><tspan x="250" dy="0">KAITO VOSS</tspan></text>
<text x="250" y="268.0" text-anchor="middle" font-family="'Courier New', monospace" font-weight="bold" font-size="16" fill="#ffffff" filter="url(#glow-tvshows-chr-1)"><tspan x="250" dy="0">KAITO VOSS</tspan></text>
</svg>